<?xml version="1.0" encoding="UTF-8"?>
<svg id="Layer_1" xmlns="http://www.w3.org/2000/svg" version="1.1" viewBox="0 0 3138 3169">
  <!-- Generator: Adobe Illustrator 29.5.1, SVG Export Plug-In . SVG Version: 2.1.0 Build 141)  -->
  <defs>
    <style>
      .st0 {
        fill: #fff;
      }
    </style>
  </defs>
  <path d="M1618.28,0c1.96,3.37,7.65,1.98,10.99,2.01,467.34,4.39,929.92,267.25,1202.43,639.14,173,236.09,301.02,564.12,304.28,859.39.04,3.34-1.36,9.03,2.01,10.99v143.95c-3.37,1.96-1.98,7.65-2.01,10.99-2.66,282.52-122.09,599.55-282.29,829.39-276.96,397.36-748.5,665.57-1238.42,671.13-3.34.04-9.03-1.36-10.99,2.01h-67.99c-1.96-3.37-7.65-1.98-10.99-2.01-180.67-1.72-378.09-46.77-544.87-114.99C418.66,2822.22,27.53,2269.78,4.61,1660.46l-4.02-26.97c1.37-32.89-1.84-67.25,0-99.97,4.36-77.41,12.85-157.58,26.59-234.34C157.24,572.21,781,22.83,1522.3,0h95.98ZM1505.86,78.53C693.02,108.24,45.41,796.11,62.67,1608.4c18.51,870.91,749.37,1541.24,1620.58,1476.6,809.32-60.04,1417.11-749,1390.78-1558.5-27.13-834.01-738.25-1478.31-1568.17-1447.97Z"/>
  <path class="st0" d="M1536.3,3169H.59v-1535.52l4.02,26.97c22.93,609.32,414.05,1161.76,975.83,1391.54,166.78,68.21,364.2,113.27,544.87,114.99,3.34.03,9.03-1.36,10.99,2.01Z"/>
  <path class="st0" d="M1522.3,0C781,22.83,157.24,572.21,27.17,1299.18c-13.73,76.76-22.22,156.93-26.59,234.34V0h1521.72Z"/>
  <path class="st0" d="M3138,1655.48v1513.52h-1533.71c1.96-3.37,7.65-1.98,10.99-2.01,489.92-5.56,961.46-273.77,1238.42-671.13,160.2-229.84,279.63-546.88,282.29-829.39.03-3.34-1.36-9.03,2.01-10.99Z"/>
  <path class="st0" d="M1618.28,0h1519.72v1511.52c-3.37-1.96-1.98-7.65-2.01-10.99-3.26-295.26-131.28-623.3-304.28-859.39C2559.19,269.26,2096.61,6.41,1629.27,2.01c-3.34-.03-9.03,1.36-10.99-2.01Z"/>
  <path class="st0" d="M1505.86,78.53c829.92-30.34,1541.05,613.96,1568.17,1447.97,26.33,809.51-581.46,1498.46-1390.78,1558.5C812.04,3149.64,81.18,2479.31,62.67,1608.4,45.41,796.11,693.02,108.24,1505.86,78.53ZM515.13,2638.53c531.91,531.03,1382.12,582.55,1973.95,116.56,600.97-473.18,748.69-1327.75,333.83-1975.18C2485.01,252.6,1850.82-8.52,1236.32,130.92,671.11,259.18,226.81,711.67,109.17,1279.19c-100.97,487.1,48.63,1003.58,401.42,1352.92l4.55,6.41Z"/>
  <path d="M515.56,2638.31C-277.52,1849.49,60.6,489.14,1127.58,160.02c573.88-182.6,1232.95,20.33,1604.34,493.04,520.37,641.59,401.49,1612.93-254.54,2111.13-582.31,452.93-1436.1,404.34-1961.68-125.74l-.14-.15ZM1568.54,389.58c-1.86-1.79-6.25-.41-8.98.51-32.12,11.67-76.98,36.76-85.16,70.42-1.71,8.58-1.25,19.4,5.2,25.87,7.54,7.15,20.3,7.5,30,5.06,35.46-9.57,51.82-61.52,59.85-96.71.31-2.36.1-4.13-.85-5.09l-.06-.06ZM1605.17,389.57c-.57,1.12-.55,2.94-.22,5.23,8.09,42.12,31.28,106.36,79.32,96.16,7.38-1.94,12.78-8.1,14.09-15.52,4.57-24.29-14.67-45.19-34.87-59.62-7.86-5.64-14.87-9.67-23.48-13.97-8.01-4.02-19.47-9.52-26.94-12.32-2.51-1.03-7.09-2.19-7.86-.03l-.04.08ZM1339.21,406.75c-7.06-2.52-14.87,18.1-17.68,23.59-5.98,13.8-11.4,27.87-12.46,42.21-.79,9.71.62,19.54,5.84,28.27,2.82,4.72,7.08,9.45,12.37,10.46,9.39,1.36,19.72-7,25.26-14.1,15.85-21.37,3.33-57.33-7.25-82.52-1.27-2.93-3.38-6.88-5.99-7.87l-.1-.04ZM1837.2,406.07c-6.88-1.87-12.27,16.72-14.61,21.89-2.75,7.37-4.96,14.8-6.54,22.54-4.82,23.56-2.7,46.73,17.18,57.98,6.08,3.56,14.05,4.16,19.67-.49,24.8-24.62,5.61-65.19-9.02-94.45-1.52-2.85-3.85-6.56-6.58-7.44l-.11-.03ZM1404.01,464.48c-3.23.83-5.88,4.93-7.55,8.19-19.81,38.57-23.95,91.09,20.27,104.37,3.28.77,6.61.84,9.68.04,3.01-.76,5.75-2.35,8.09-4.51,28.36-30.78,6.22-76.52-20.73-103.69-2.56-2.55-6.27-5.34-9.64-4.43l-.13.03ZM1770.67,464.33c-4.84-2.67-9.72,2.96-12.94,6.57-5.13,6.02-10.49,13.06-15,19.63-16.11,22.92-24.82,55.52-6.24,78.44,4.6,6.08,12.07,9.4,19.69,7.71,41.14-10.74,41.73-56.71,26.35-92.2-1.66-3.96-3.42-7.77-5.16-11.42-1.47-3.14-4-7.27-6.59-8.66l-.12-.06ZM1133.85,471.65c-2.78-2.77-11.8,3.01-16.33,5.03-9.87,5.15-19.51,11.51-27.58,19.24-15.23,13.89-21.67,32.85-20.11,53.71.88,14.68,5.4,30.14,16.53,40.3,4.67,4.19,9.69,6.85,15.65,6.86,10.57-.04,24.39-8.28,30.05-17.5,12.66-21.62.58-49.08-.98-72.69-.73-8.08-.59-15.58,1.43-23.35.69-2.82,1.75-5.97,1.98-8.74.08-1.24-.09-2.18-.58-2.79l-.05-.06ZM2089,588.75c8.04-8.11,12.7-20.06,14.7-31.31,6.91-38.88-19.46-69.9-54.01-84.2-4.92-2.19-12.2-4.7-10.49,3.57.89,4.62,2.83,10.22,3.53,15.09,5.64,31.95-22.68,71.22,6.72,95.52,11.72,10.46,27.5,13.32,39.41,1.46l.14-.14ZM1516.57,1338.47c24,3.25,107.32.32,136.25,1.1,7.86.01,4.77-12.11,4.89-18.13-3.19-77.67-.49-187.14,60.08-242.73,36.6-32.34,82.54-48.62,128.29-63.78,87.79-26.22,87.57-52.15,141.31-116.52,6.54-7.33,14.03-13.71,23.28-16.99,36.11-11.69,75.41-15.05,112.13-23.53,32.68-6.71,69.09-20.8,99.09-40.57,45.72-30.18,90.53-63.45,138.11-90.17,1.08-1.29-.63-1.5-4.38-.63-.53.12-1.09.26-1.69.42-16.73,5.03-32.51,13.43-47.73,21.9-38.88,21.74-74,52.3-114.61,70.29-36.3,14.42-95.97,20.82-140.67,21.71-10.34-.02-20.84.4-30.81-1.41-22.62-5.29-9.4-23.95,2.32-33.38,27.9-22.87,37.07-33.22,46.25-69.07,11.41-41.33,19.32-84.75,36.99-124.82,4.92-11.56,10.63-22.8,15.38-34.4,1.68-4.25,2.35-6.92,1.57-6.76-32.8,47.31-49.95,105.41-73.32,158.1-3.13,7.2-6.75,14.32-11.68,20.44-11.67,14.6-29.94,22.63-45.56,32.53-5.89,3.76-10.9,7.8-14.53,13.27-10.49,16.64-10.66,40.21-16.4,58.92-27.17,104.88-144.08,106.69-225.58,153.46-7.07,3.68-14.12,7.3-21.35,10.54-9.9,4.44-20.02,8.17-31.18,10.48-13.39,2.12-31.19,6.37-42.04-2.76-23.74-20.18-18.45-121.39-10.83-148.02,4.63-14.2,14.58-27.06,23.58-39.42,9.84-13.04,18.57-25.07,26.35-38.78,22.25-38.25,35.11-74.47,51.97-114.29,4.44-10.45,9.7-21.48,16.24-30.36,10.68-14.77,24.76-24.73,39.89-34.41,53.42-31.97,91.13-70.26,98.9-134.01-.1-1.6-.92-.61-2.24,2.21-13.99,37.27-41.28,63.43-75.31,83.9-16.98,9.79-43.48,27.36-63.38,26-13.92-1.75-18.58-21.47-24.26-32.44-11.63-27.16-30.04-54.73-60.01-61.06-12.39-2.16.03,5.23,4.14,7.99,64.15,41.95,43.43,151.67,13.72,209.77-17.73,34.19-51.76,75.41-92.62,78.64-66.12-9.72-104.02-85.37-116.02-145.24-7.27-37.19-9.96-79.01,8.83-113.24,5.85-10.26,13.09-19.28,22.85-26.43,3.15-2.88,13.68-8.04,13.68-11.24-.23-.41-1.01-.57-2.25-.5-.9.05-2.02.22-3.3.49-15.11,3.15-27.94,12.53-37.49,24.35-15.01,17.56-22.57,42.81-35.03,61.2-4.98,7.86-12.86,9.46-22.07,7.2-9.81-2.15-19.82-7.13-28.71-11.83-33.67-18.39-71.04-41.11-88.47-77.05-4.02-7.43-16.1-37.3-10.53-10.87,6.7,32.55,22.96,63.25,47.07,86.1,26.5,25.56,64.44,38.4,87.99,67.09,17.63,22.6,23.65,52.85,34.84,78.93,17.12,40,39.19,78.71,65.01,113.83,10.23,12.68,19.02,26.35,21.77,42.71,5.35,29.4,12.05,122.96-15.46,141.33-9.04,4.84-20.42,2.53-31.31,1.16-23.05-3.31-44.55-13.04-64.87-24.05-98.94-54.39-206.65-44.14-227.33-180.99-3.71-19.38-10.58-34.1-27.65-44.7-32.24-19.55-43.51-25.06-58.93-61.32-18.38-43-33.42-87.45-55.97-128.52-4.21-6.91-7.65-14.27-12.24-19.18-.51-.16.11,1.85,1.68,5.74,7.43,17.96,16.26,37.96,23.27,55.85,15.49,39.49,20.91,81.87,34.04,121.95,2.8,7.9,6.55,15.92,10.81,22.05,11.61,16.67,29.71,23.84,40.82,41.01,3.49,5.15,5.64,10.37,4.31,14.12-4.79,11.91-36.48,8.92-48.17,9.42-57.29-2.14-120.89-9.1-166.59-38.34-41.65-24.84-80.32-57.72-126.74-73.71-1.51-.48-2.95-.91-4.24-1.26-4.56-1.24-6.95-1.33-5.86-.06.41.94,5.79,3.9,8.27,5.41,78.41,40.94,140.65,109.53,230.08,126.07,26.77,5.82,53.99,9.6,80.83,14.96,20.82,4.2,38.64,7.44,52.46,24.59,33.79,39.07,57.03,88.27,109.26,105.12,62.94,23.69,129.41,37.75,175.76,90.25,18.89,22.83,28.65,54.15,34.63,83.54,3.2,15.71,5.38,31,7.41,46.17,1.69,11.86,2.27,18.25,2.11,32.27.01,21.89-.02,51.54-.01,73.33.02,5.01-.03,7.78.86,9.02l.03.04ZM1579.8,534.36c-56.3,6.68-77.99,90.88-64.94,139.23,9.52,39.05,38.98,79.97,80.54,71.32,44.69-8.92,61.89-69.2,61.3-111.24-.57-42.98-28.87-102.88-76.71-99.34l-.2.02ZM1202.83,555.55c-2.22,3.01-.35,8.08,1.41,11.55,19.42,38.92,61.62,64.47,105.44,50.62,4.13-1.24,8.91-3.64,10.63-7.33,2.24-4.39.17-10.05-2.07-14.31-19.3-37.84-66.59-49.62-109.36-43.66-2.7.56-4.83,1.48-5.97,3.03l-.08.11ZM1970.91,555.82c-1.84-2.88-7.05-3.8-10.81-4.14-44.39-4.3-91.91,9.62-107.47,51.72-.79,2.81-.83,5.34.26,7.41,3.39,6.43,19.17,8.67,25.86,10.06,38.66,6.73,74.88-21.75,91-54.74,1.54-3.07,3.05-7.55,1.23-10.2l-.07-.11ZM1175.46,571.5c-4.92-.66-8.37,5.42-11.04,9.35-24.75,40.5-52.7,112.17-14.34,149.57,2.84,2.35,5.9,3.99,9.06,4.49,10.53,1.21,22.01-7.29,29.71-14.15,9.69-9.09,16.77-21.06,18.93-34.27,5.38-37.88-8.73-73.77-25.01-107.06-1.57-3.14-4.08-7.24-7.19-7.9l-.11-.02ZM2025.05,729.65c12.27-11.22,17.01-28.3,17.44-44.53.37-38.15-15.45-74.67-35.33-106.74-4.04-6.42-8.71-10.54-13.68-2.3-26.01,45.45-49.84,121.11.11,151.79,10.15,6.15,21.29,11.45,31.31,1.91l.15-.13ZM945.56,574.72c-1.2.96-1.55,3.26-1.26,6.46,6.61,54.57,65.74,88.7,108.76,53.39,6.39-5.52,8.28-13.13,5.77-21.24-3.75-13.43-12.59-26.88-26.71-30.49-22.5-6-47.44,3.4-70.22-3.65-2.28-.67-4.52-1.53-6.66-2.48-2.89-1.16-7.28-3.67-9.61-2.04l-.07.06ZM2228.49,574.55c-1.87-1.48-6.11.4-8.64,1.43-12.64,5.68-26.59,6.44-40.62,6.25-10.83-.07-21.78-3.02-32.55-.7-16.98,3.57-29.41,18.09-32.2,35.01-1.67,9.51,1.43,17.31,10.07,21.87,46.38,26.47,92.93-1.64,104.25-52.84.79-3.23,1.94-9.27-.24-10.97l-.07-.06ZM1294.93,713.35c4.54.85,8-4.71,12.52-8.41,1.37-1.22,2.78-2.4,4.24-3.51,13.01-10.32,30.42-13.5,44.53-21.78,7.07-4.14,13.08-9.93,16.22-17.57,4.77-11.25,3.65-27.63-6.25-35.67-5.09-4.13-11.96-5.54-18.42-5.5-14.27-.1-27.74,6.72-38.08,16.56-15.09,13.87-22.87,31.74-21.96,51.18.4,5.69,1.41,22.15,7.1,24.66l.1.03ZM1879.94,712.12c1.57-.79,2.77-2.71,3.67-5.25,13.41-41.87-21.49-91.04-65.27-84.18-20.96,3.56-24.39,28.08-14.67,44.13,11.19,18.2,34.42,19.08,52.13,30.09,2.98,1.77,5.75,3.85,8.39,6.11,5.41,4.25,10.34,11.06,15.64,9.16l.11-.05ZM908.91,627.01c-3.24.59-5.67,5.51-6.79,8.97-16.22,52.85-15.93,128.48,46.83,144.55,8.1,2.08,18.97,3.73,26.26.25,8.96-4.55,12.57-17.45,15.68-26.82,16.97-54.41-28.52-101.54-74.64-125.5-2.71-1.26-5.15-1.96-7.21-1.48l-.12.03ZM2266.86,627.45c-6.65-3.3-17.43,5.34-23.48,8.83-30.99,20.62-62.04,51.34-64.43,90.34-.9,14.95,3.37,29.11,9.88,42.48,2.21,4.62,5.41,9.06,10.07,11.29,3.16,1.58,6.94,2.24,10.97,2.17,70.83-4.41,80.83-81.79,63.09-143.87-1.1-3.97-2.63-9.34-5.97-11.18l-.12-.07ZM1254.05,711.33c-1.93-1.46-6.23.24-8.8,1.34-27.19,12.35-48.94,36.06-40.52,65.19,4.64,16.83,16.44,18.41,30.36,10.08,25.56-16.16,17.04-34.8,18.02-59.51.21-3.1.83-6.26,1.42-9.28.41-2.56,1.28-6.12-.41-7.76l-.07-.06ZM1919.91,711.28c-1.67,1.83-.66,5.49-.28,8.16.89,4.73,1.57,9.6,1.54,14.44-.04,11.7-2.66,22.82.93,33.81,3.75,11.5,14.31,20.96,25.82,24.22,13.84,3.91,20.57-9.66,21.97-21.31,3.43-23.32-12.86-41.44-32.03-53.15-4.11-2.22-13.76-8.99-17.87-6.23l-.07.06ZM1323.82,730.06c-2.56,3.35.64,8.72,2.98,12.2,3.22,4.78,7.2,9.84,10.91,14.38,16.14,19.79,37.85,38.64,61.89,45.02,17.39,4.98,36.79,2.6,53.26-5.4,5.42-2.59,13.03-6.46,15.03-11.78,1.18-3.02.8-6.62-.41-10.57-15.32-44.93-69.15-54.48-112.5-51.09-7.21.53-14.38,1.59-21.5,2.86-3.27.58-7.91,1.96-9.59,4.29l-.07.1ZM1851.39,729.64c-1.42-2.33-5.88-3.14-8.79-3.67-4.76-.82-9.58-1.68-14.32-2.3-29.35-2.85-61.51-1.9-88.35,11.32-15.33,7.9-27.05,19.92-33.78,35.37-3.62,7.73-2.14,15.46,5.12,20.63,52.01,34.66,107.57-3.89,137.15-50.27,2.01-3.1,4.84-8.11,3.03-10.98l-.06-.1ZM1025.61,730.8c-2.37.91-3.31,4.91-3.92,7.67-5.23,27.2-8.59,63.83,13.08,79.59,5.38,4.22,13.68,6.69,18.64.69,17.8-25.91-.54-62.74-20.46-84.02-1.93-1.96-4.83-4.67-7.25-3.96l-.09.03ZM2148.12,730.16c-4.31-.54-9.69,6.68-12.48,9.81-15.35,19.56-28.54,48.5-18.27,72.69,1.57,3.49,4.07,7.24,7.58,8.38,6.2,1.85,13.37-3.1,17.85-7.41,14.14-14.16,15.01-36.98,12.34-55.9-.36-2.48-.76-5-1.16-7.52-1.31-5.88-1.58-18.38-5.78-20.03l-.09-.03ZM679.96,788.51c-.63,1.41.17,3.44,1.69,5.81,27.09,39.5,87.14,48.85,131.46,32.27,31.41-12.08,43.27-31.97,18.76-59.9-14.09-16.47-37.08-18.25-56.16-10.88-24.88,9.62-48.68,31.18-76.76,29.81-5.01.41-16.48-1.18-18.95,2.81l-.04.09ZM2494.74,788.41c-.61-1.46-2.9-2.24-6.27-2.54-3.57-.33-8-.17-11.82-.27-11.86-.04-22.16-3.34-33.07-7.18-27.74-10.14-50.92-35.34-82.81-24.28-11.16,4.07-21.53,13.69-27.97,23.68-3.64,5.75-5.94,11.58-5.49,17.13,1.59,15.03,21.7,26.63,34.67,32.1,44.74,16.25,102.89,6.15,130.98-32.9,1.55-2.31,2.38-4.27,1.82-5.65l-.04-.09ZM1258.51,886.35c3.61,1.74,8.46.94,12.36-.51,32.94-11.62,43.9-45.36,41.98-80.54-.38-7.7-1.39-16.22-4.03-23.23-3.51-9.87-10.37-6.7-17.43-2.26-35.63,20.63-53.55,53.85-40.99,94.65,1.32,4.53,3.65,9.84,7.95,11.81l.15.07ZM1907.67,799.17c-7.42-7.77-16.87-14.81-26.32-20.29-10.57-6.19-16.6-4.58-18.57,8.3-7.57,40.2,1.84,83.42,39.17,98.72,18.04,7.36,22.55-12.4,24.97-25.78,1.33-9.17.85-18.53-1.33-27.54-2.91-12.2-9.3-24.16-17.78-33.26l-.14-.15ZM1820.39,806.96c-1.37-1.23-3.83-1.15-6.94-.11-59.09,23.84-81.8,111.42-29.72,151.23,6.95,5.67,16.32,9.3,24.94,5.74,13.55-5.74,26.19-16.56,31.23-30.42,9.79-28.39-11.23-54.33-17.73-81.07-2.24-9.14-2.88-18.4-1.94-27.39.07-4.96,3.56-14.15.23-17.91l-.08-.07ZM1354,808.9c-3.47,3.96-.52,11.8-.4,17.17.85,8.79.3,17.78-1.87,26.36-7.51,28.82-30.87,57.41-15.33,86.61,4.83,9.39,13.01,16.04,22.08,21.24,11.05,6.9,20.81,6.82,30.96-1.34,51.18-39.17,31.1-129.58-28.22-150.52-3.15-.91-5.68-.88-7.14.41l-.08.07ZM826.19,907.55c3.06-.48,5.85-3.92,8.39-5.87,8.53-7.53,20.51-11.76,31.85-14.27,9.62-2.17,18.76-2.97,28.81-3.51,13.83-.88,29.08-1.43,38.84-10.56,9.77-8.99,11.84-27.25,6.44-38.92-5.12-9.93-17.83-12.41-28.03-13.84-8.73-.98-17.9-.27-26.28,2.22-30.63,9.72-49.5,45.03-59.96,74.77-.82,2.7-2.68,9.39-.12,9.99h.07ZM2348.55,907.39c.77-.54.73-2.42.09-5.17-13.01-45.8-45.45-93.41-96.22-79.86-7.79,1.99-16.59,4.97-20,12.32-6.11,14.18-1.33,34.35,12.12,42.7,6.97,4.51,15.57,5.73,23.73,6.39,27,1.66,54.42,2.08,75.37,21.52,2.35,1.78,4.05,2.68,4.86,2.14l.05-.03ZM1003.85,869.92c-56.57,1.59-89.52,72.46-71.33,122.91,2.04,5.67,5.94,12.56,11.3,5.58,3.64-4.64,7.02-10.38,11.59-14.38,30.3-26.89,82.06-18.56,90.58-68.75,1.13-8.05-1-17.45-3.44-25.52-2.19-7.24-5.12-12.19-11.55-14.96-7.9-3.31-18.1-5.11-26.96-4.88h-.19ZM2235.84,1001.87c1.55-.69,3.05-2.79,4.32-5.67,21.36-56.97-16.55-128.95-78.53-125.36-6.95.37-14.6,1.91-20.24,5.72-15.58,10.9-15.94,36.1-9.34,52.29,12.01,29.43,47.9,31.95,72.78,44.68,7.11,3.66,13.48,8.28,18.25,14.64,3.17,3.22,7.66,15.72,12.67,13.73l.1-.04ZM772.04,875.51c-2.03-1.21-3.99-.24-6.06,1.01-38.64,30.56-73.45,91.85-29.17,130.08,11.37,10.08,23.14,16.86,37.37,8.41,12.6-6.91,22.79-18.83,26.65-32.85,10.59-34.2-17.54-61.85-24.38-94.66-.89-3.81-1.42-9.65-4.32-11.93l-.09-.06ZM2402.11,875.56c-3.01,1.84-3.54,7.59-4.52,11.18-8.12,34.79-38.51,66.77-23.47,100.71,5.07,11.79,14.24,21.29,25.41,27.61,5.11,2.85,9.98,4.56,14.77,4.15,10.45-1.19,21.46-9.89,28.68-17.72,35.65-39.16,1.6-95.1-35.06-124.39-2.33-1.62-4.28-2.28-5.73-1.58l-.09.04ZM1122.11,898.36c-13.43,2.38-25.25,11.25-34.44,21.27-4.01,4.84-13.06,13.24-10.24,18.87,1.49,2.59,5.78,3.6,9.02,4.04,27.46,3.1,59.57-2.28,72.74-25.15,7.26-12.5-.67-17.84-13.45-19.33-7.78-1.1-16.03-1.12-23.42.26l-.2.04ZM1486.59,899.15c-3.29-1.74-10.22,10.25-12.8,12.62-11.9,14.14-26.15,17.07-38.08,29.75-7.44,7.62-11.19,18.37-10.92,28.95.17,9.1,3.31,18.98,11.11,23.7,17.37,9.32,36.82-6.4,44.53-21.77,8.85-16.83,9.21-36.42,8.47-54.96-.2-4.78,0-9.87-.74-14.53-.31-1.85-.78-3.18-1.5-3.7l-.06-.04ZM1687.43,899.59c-2.16.61-2.59,5.47-2.84,8.06-2.82,34.99,1.91,85.41,42.55,89.27,16.78,1.28,22.91-18.81,22.12-32.64-1.66-27.97-35.38-32.15-50.54-52.32-2.81-2.91-7.65-12.49-11.22-12.38h-.07ZM2095.74,940.21c4.43-4.48-7.56-18.1-10.54-21.8-3.58-4.05-7.38-7.34-11.93-10.32-14.33-9.46-33.33-13.67-49.77-9.18-9.16,2.21-13.91,8.61-9.03,17.52,11.76,21.64,41.67,29.23,65.82,26.96,4.93-.66,11.46-.17,15.37-3.1l.08-.08ZM1168.86,944.21c-24.2.9-47.72,12.65-67.53,26.62-7.88,5.59-15.32,11.66-22.07,17.79-2.02,1.87-4.23,4.03-5.37,6.42-2.63,5.26,3.28,8.67,7.73,10.87,42.68,20.7,105.1,28.26,133.32-14.13,4.65-6.88,10.99-15.33,8.78-23.58-1.85-6.02-7.81-9.77-14.03-13.47-12.21-7.07-26.79-11.03-40.63-10.53h-.2ZM1998.21,944.23c-12.28.66-24.92,4.61-35.69,11.21-9.83,5.73-15.92,13.16-11.15,24.45,24.73,53.83,96.01,50.2,145.24,24.04,8.56-5.09,4.02-10.79-1.63-15.63-7.64-6.73-15.77-13.39-24.24-19.29-21.15-14.62-46.56-25.18-72.34-24.78h-.2ZM871.49,946.2c-9.03-2.4-31.31,27.51-36.8,35.03-30.21,40.75-41.6,96.03,5.17,130.97,6.38,4.31,13.97,5.08,21.13,2.17,62.54-28.52,46.34-109.1,16.42-163.32-1.73-2.59-3.65-4.33-5.79-4.82l-.13-.03ZM2303.65,947.44c-2.16.32-4.13,2.01-5.96,4.61-26.04,44.08-43.96,104.91-7.69,144.83,7.6,7.94,21.46,20.75,32.79,19.78,8.63-1.01,17.53-9.58,23.69-16.24,44.34-49.12,5-111.24-35.75-150.27-2.45-1.98-4.8-3.04-6.95-2.74l-.12.02ZM554.69,957.23c-1.33,3.31,2.07,6.95,4.43,9.31,14.81,14.39,38.15,20.66,59.16,15.57,3.63-.89,8.53-2.52,9.78-6.09,1.22-3.78-2.24-7.65-5-10.17-15.11-13.6-36.09-16.38-57.49-13.37-3.68.59-9.08,1.36-10.83,4.65l-.05.11ZM2618.08,957.1c-1.72-3.12-6.67-4.01-10.18-4.66-20.37-3.15-42.81-.37-56.69,12.77-2.74,2.58-5.82,6.5-4.62,10.27,1.27,3.9,6.36,5.84,10.25,6.87,18.89,4.92,37.66-.54,52.67-12.41,3.46-2.98,10.31-7.69,8.62-12.73l-.05-.11ZM1249.34,1334.05c-1.52-3.01-4.73-6.11-7.16-8.91-20.74-23.77-39.33-49.11-60.21-72.83-13.58-15.91-28.09-32.15-44.45-45.44-58.73-49.8-141.55-25.5-212.15-30.42-9.67-.54-19.26-1.57-28.81-3.83-52.9-12.6-86.87-58.19-120.41-97.38-28.6-32.9-60.31-68.52-102.36-83.1-19.15-6.47,6.15,9.45,9.79,12.99,56.3,47.72,94.16,112.94,144.47,166.48,11.12,11.83,22.04,21.35,37.36,28.13,8.58,3.84,18.83,6.8,28.26,8.9,74.83,16.13,161.68,7.1,221.18,61.37,17.35,15.3,32.7,34.34,44.99,53.8,4.89,7.65,7.32,13.3,17.45,12.7,16.32-.06,51.27.1,67.69-.03,1.26-.04,2.28-.14,3.02-.33,1.31-.34,1.72-.98,1.36-2.04l-.03-.07ZM1923.56,1334.07c-.76,2.32,2.49,2.16,4.39,2.31,16.28.14,50.87-.02,66.8.03,10.97.62,14-6.75,20.06-14.65,21.6-29.64,45.94-59.31,79.06-76.44,51.13-25.49,115.95-23.11,171.97-34.37,12.16-2.13,26.17-5.25,36.44-9.34,26.1-9.57,46.93-33.64,65.27-54.92,39.72-45.95,71.69-98.93,118.85-138.01,5.77-4.48,13.48-9.99,18.56-14.05,3.88-3.18,4.96-4.84.17-3.81-37.98,9.89-68.19,41.39-94.22,69.14-27.86,30.02-52.07,65.59-85.37,90.44-15.25,11.4-32.24,19.59-50.82,22.95-44.39,8.08-92.93.81-138.77,1.8-47.45.52-82.57,11.22-116.95,47.5-20.58,20.5-38.01,42.81-56.07,65.37-10.96,13.65-22.16,27.12-34.21,39.69-1.05,1.12-2.02,2.16-2.83,3.09-1.13,1.3-1.95,2.38-2.27,3.21l-.03.07ZM512.98,1044.64c-1.09,2.63,2.05,7.07,3.9,9.74,28.59,41.38,90.52,47.59,135.07,27.63,10.39-4.82,20.24-11.26,27.59-20.07,7.22-8.61,4.55-18.92-1.24-27.76-13-21.83-35.26-29.63-59.34-23.03-28.22,7.97-52.94,30.45-83.15,30.28-5.48.6-20.37-1.42-22.79,3.11l-.04.09ZM2659.15,1043.84c-1.31-1.76-6.18-2.14-9.46-2.26-5.04-.2-10.12-.53-15.14-1.17-12.8-1.59-25.4-4.85-37.3-9.83-29.84-13.19-58.09-34.76-88.76-11.51-5.12,4.16-9.45,9.52-12.92,15.32-5.91,9.39-8,19.29-.57,28.18,12.37,14.89,31.63,22.98,50.23,27.27,39.48,8.9,87.87.14,111.25-35.43,1.95-2.84,4.85-8.16,2.74-10.5l-.07-.08ZM1187.64,1059.29c-.23,1.66.84,3.49,2.92,5.43,35.46,29.22,94.78,21.61,107.75-23.58,1.82-7.3-.65-14.43-6.43-19.29-17.72-15.41-43.12-14.45-61.95-.57-9.45,6.45-16.38,15.53-24.57,23.28-1.71,1.6-3.48,3.13-5.34,4.54-4.07,3.17-9.25,5.4-11.3,7.93-.54.65-.93,1.35-1.07,2.15l-.02.11ZM1986.85,1059.12c-.62-3.39-5.13-5.3-7.99-7.14-18.94-11.04-31.35-34.73-54.14-40.1-14.05-3.76-28.94-.18-40.7,8.12-6.82,4.52-10.22,11.76-8.46,19.75,11.47,46.44,71.85,54.35,108.21,24.92,2.13-1.94,3.26-3.78,3.09-5.45v-.11ZM1069.67,1044.86c-1.29.81-1.92,2.65-2.28,5.13-4.49,49.33,6.45,118.37,58.31,129.23,6.96.98,12.95-2.22,16.7-8.23,26.62-47.38-14.72-96.49-56.03-120.05-4.78-2.36-12.29-8.11-16.62-6.14l-.09.05ZM2103.54,1044.21c-2.42-.52-6.66,1.7-9.26,3.04-5,2.61-10.01,5.78-14.66,9.03-29.35,21.19-63.85,54.05-56.03,93.87,1.35,6.37,3.76,13.59,6.79,19.4,3.37,6.74,8.02,10.11,15.43,9.28,9.54-1.14,18.79-5.14,26.3-11.1,19.05-15.38,28.36-40.27,32.94-63.34,1.5-7.44,1.38-12.75,1.39-20.29-.01-9.09.03-23.1-.02-31.66.03-2.95-.43-7.99-2.79-8.21l-.09-.02ZM2149.49,1157.35c9.47,4.75,23.93-4.8,29.76-12.33,17.74-22.81-7.33-56.1-4.74-83.42.08-4.39.79-12.02-5.34-6.85-26.76,24.3-43.65,63.33-25.43,97.04,1.54,2.41,3.42,4.31,5.59,5.47l.16.08ZM1001.12,1055.22c-2.28,2.14-1.82,7.64-2.01,11.2-.09,5.43-.73,10.88-1.73,16.26-6.76,32.36-22.21,56,14.59,74.25,10.25,4.64,16.19-.91,19.95-10.2,12.53-30.35-.36-65.79-22.84-87.92-2.08-1.95-5.57-5.1-7.89-3.65l-.07.05ZM1404.77,1080.92c-1.71-2.38-4.26-4.34-7.3-5.9-46.94-21.13-88.67,12.86-109.27,55.34-1.72,3.46-3.53,8.38-1.66,11.5,1.47,2.74,5.67,4.1,8.98,4.79,28.87,5.59,61.67,8.75,86.72-7.92,10.08-6.84,17.2-17.28,21.3-28.68,2.74-8.66,6.88-21.06,1.35-28.98l-.11-.15ZM1886.19,1141.54c1.69-3.12.18-7.8-1.38-11.24-18.8-42.55-63.28-77.47-108.66-54.75-3.18,1.89-5.71,4.32-7.25,7.22-2.64,4.85-2.23,10.61-1.27,16.29,2.02,12.02,7.3,23.53,15.66,32.45,18.31,20,49.1,20.86,74.25,18.82,4.12-.41,8.2-1.01,12.27-1.79,5.78-1.37,13.17-1.8,16.32-6.87l.06-.12ZM949.99,1071.28c-2.06-1.59-6.35-.07-9.04,1.08-26.3,11.49-44.86,34.7-38.71,63.29,3.26,16.48,14.58,18.03,27.96,10.61,8.81-4.76,15.13-13.65,17.19-23.42,1.83-8.16.26-16.11.49-24.4.07-4.25.54-8.52,1.36-12.7.48-4.16,3.76-11.2.82-14.4l-.08-.06ZM2234.49,1139.89c4.27,4.39,11.05,8.02,17.55,9.77,11.26,3.35,17.33-4.24,19.67-14.16,7.61-28.88-14.67-54.95-43-64.57-3.33-.94-6.42-1.32-6.9,2.13-.4,2.98,1.51,8.53,2.01,13.81.31,2.7.47,5.41.56,8.13.51,15.11-1.26,33.26,9.97,44.74l.14.14ZM605.52,1148.57c.6,1.48,2.38,2.75,4.88,3.89,40.72,14.46,101.46,30.61,138.34,7.62,8.8-5.81,20.42-16.49,19.95-27.88-.28-3.62-2.07-7.32-4.78-11.03-38.83-49.85-107-18.41-148.34,14.89-3.44,3.05-11.43,7.51-10.08,12.41l.04.09ZM2569.63,1148.48c.63-2.83-3.35-6.51-5.85-8.66-43.08-37.29-118.15-69-155.93-17.36-2.01,3.12-3.28,6.48-3.44,9.82-.19,3.35.73,6.67,2.46,9.74,31.71,47.22,103.52,27.78,154.02,12.05,3.13-.99,8.11-2.69,8.74-5.5l.02-.09ZM1195.97,1103.43c-2.31,2.26-.54,8.37.1,11.96,10.86,44.93-46.46,92.81-9.03,129.61,8.15,7.55,19.74,16.55,30.97,15.46,15.83-2.52,28.21-16.7,34.65-30.69,9.58-21.53,9.91-46.86,3.05-69.2-5.92-18.72-17.89-34.74-33.61-46.19-4.65-3.26-21.3-14.6-26.05-11l-.07.06ZM1977.73,1103.38c-3.2-3.13-16.99,5.66-20.8,7.66-21.29,12.08-35.51,33.34-40.69,57.23-7.36,31.82-.66,68.72,26.93,87.38,6.69,4.51,13.74,6.25,21.13,3.56,11.39-4.06,25.99-14.9,31.57-26.21,13.02-28.19-9.58-57.17-16.33-85.33-2.67-10.08-3.95-19.41-2.19-29.79.53-3.51,1.56-7.42,1.55-10.85-.02-1.6-.36-2.84-1.09-3.58l-.07-.07ZM517.93,1246.52c4.72-3.83,4.24-11.48,4.56-17.18.77-24.76-15.05-49.36-36.24-60.6-5.57-3.18-12.81-4.81-14.89,3.08-5.33,30.41,7.05,66.34,35.94,75.3,3.41,1.09,7.75,1.54,10.52-.51l.12-.09ZM2656.13,1246.26c6.06,4.52,15.3-1.4,20.94-4.85,12.19-8.06,20.74-20.42,23.88-34.7,2.01-8.11,5.48-34.52-2.19-39.41-4.35-2.62-10.28.69-14.35,3.13-23.15,14-34.87,38.73-32.38,65.65.35,3.6,1.4,7.91,3.99,10.08l.11.09ZM722.83,1256.72c17.16-16.9,41.26-20.75,64.61-20.03,18.71.21,39.62-2.46,44.58-23.44,4.94-21.25.13-32.14-21.16-38.68-7.24-2.18-13.94-3.39-21.05-3.05-35.45,3.4-61.17,43.64-71.45,76.85-1.46,5.28-3.99,15.86,4.34,8.45l.13-.11ZM2371.01,1172.15c-12.78,2.34-27.71,9.29-31,23.35-7.67,43.37,36.28,40.44,70,42.51,15.28,1.08,29.78,7.63,40.82,18.26,3.48,2.98,6.37,5.89,5.31-.1-.58-3.17-2.14-8.39-3.45-12.88-10.1-35.78-41.32-77.25-81.48-71.16l-.2.03ZM606.82,1334.54c2.02-1.48,3.4-3.57,4.38-6.12,12.44-39.45,3.27-86.08-28.2-111.75-3.6-3.02-8.81-6.36-13.34-4.56-3.22,1.16-5.79,4.81-7.44,8.07-18.23,35.19-8.99,78.27,16.4,107.68,2.86,3.32,6.17,6.63,10.1,8.08,5.77,2.15,12.95,2.24,17.97-1.31l.14-.1ZM2600.4,1210.93c-3.25.42-6.87,3.3-9.59,5.7-26.94,23.4-38,59.66-32.11,94.89,1.95,8.92,3.18,22.55,13.69,25.03,7.39,1.76,15.41-.83,20.66-6.61,7.73-8.25,13.89-17.94,18.59-28.18,9.85-21.86,13.61-47.93,4.39-70.61-2.72-5.99-7.68-21.17-15.48-20.24l-.14.02ZM867.34,1275.99c1.7,3.01,7.09,3.21,10.54,3.56,28.22,2.1,63.33-2.63,75.18-26.38,1.66-3.38,2.41-7.47.99-10.92-.86-2.2-2.51-4.13-4.71-5.64-27.4-15.35-59.65,6.67-77.88,29.45-2.04,2.67-5.43,6.67-4.17,9.84l.04.09ZM1392.65,1235.44c-.72-1.41-2.47-2.22-4.9-2.66-50.63-5.42-131.43-2.88-127.2,58.31.71,10.35,7.39,17.99,16.76,21.52,41.01,16.59,94.33-38.14,114.92-71.77.89-2.11,1.13-3.95.47-5.31l-.05-.09ZM1781.91,1235.96c-1.92,2.73.68,7.53,2.62,10.3,6.57,9.24,14.47,18.29,22.22,26.57,24.02,25.38,63.13,56.73,95.9,36.2,2.63-1.78,4.96-4.07,6.72-6.81,3.27-4.95,4.41-11.43,4.05-17.39-3.17-54.23-72.21-56.52-121.22-52.71-3.49.28-8.55,1.13-10.23,3.74l-.06.09ZM2267.82,1279.62c6.69.85,14.43.77,21.57.64,6.11-.34,13.16.28,16.72-3.43,2.45-3.59-1.76-8.29-4.21-11.23-14.73-16.98-34.66-34.08-57.45-34.3-8.83.09-22.27,2.62-25.29,12.08-1.17,4.56,1.02,10.33,4.55,15.11,9.08,12.18,29.33,18.98,43.91,21.1l.19.02ZM962.1,1291.26c-2.05,1.9,1.14,7,2.73,9.32,8.74,12.72,22.13,23.07,36.55,28.83,29.18,11.66,70.28,9.37,87.88-19.45,8.85-13.31-.45-28.3-11.74-36.52-7.74-5.67-17.46-8.18-27.05-7.85-28.56.47-51.79,27.54-79.69,24.73-2.78-.11-6.8-.65-8.62.87l-.06.06ZM2212.48,1290.69c-1.94-1.58-5.32-.72-7.85-.67-24.66,2.44-46.77-16.08-69.29-22.42-9.78-2.87-19.97-3.41-29.61.69-12.75,5.13-26.75,19.67-24.02,33.99,2.98,16.41,20.49,26.72,35.5,31.01,33.78,9.27,72.87-5.56,92.7-34.28,1.53-2.18,4.13-6.57,2.62-8.26l-.05-.06ZM550.73,1332.6c-14.6-45.95-66.92-71.8-114.76-60.85-2.88.97-5.06,2.45-6.2,4.48-4.62,8.69,9.11,27.75,15.15,34.32,6.47,7.33,15.76,13.47,24.46,18.65,6.25,3.87,12.04,7.03,19.33,6.5,12.49-.01,41.43.06,55.91-.02,3.94-.09,5.95-.82,6.1-2.98v-.1ZM2622.35,1332.79c-.21,2.71,4.12,3,7.61,2.92,13.48,0,41.24,0,54.16,0,6.24.24,11.07-.39,16.54-4.04,5.89-3.55,12.28-7.9,17.92-12.03,7.53-5.41,12.13-10.69,16.96-18.14,3.64-6.08,11.85-17.8,8.7-24.63-1.07-2.13-3.34-3.64-6.35-4.71-47.76-12.88-98.8,15.5-115.53,60.54v.1ZM1396.08,1333.75c-19.59-19.72-57.76-23.17-77.54-3.1-5.84,6.15,1,4.93,8.48,5.08,1.67,0,3.32,0,5.05,0,15.97,0,35.79,0,51.04,0,4.65-.3,14.74,1.05,13-1.92l-.04-.07ZM1858.1,1333.47c-17.04-21.04-52.25-20.45-73.57-5.19-2.12,1.52-6,4.27-6.22,6.15.45,1.9,4.88,1.12,10.59,1.3,3,0,5.96,0,9.03,0,14.63,0,33.24,0,47.08,0,4.25-.32,14.79,1.17,13.12-2.19l-.03-.08ZM1132.27,1333.73c.5-3.81-8.53-5.05-11.45-4.72-3.63-.28-20.75,4.38-12.05,6.51,2.98.59,6.57.6,9.88.58,4.02-.2,11.55.58,13.59-2.29l.04-.08ZM2066.1,1333.88c-2.6-3.64-14.71-6.01-19.71-4.42-7.18,2.28-4.38,6.15,2,6.47,2.83.09,17.73,1.11,17.74-1.98l-.02-.07ZM767.52,1408.1c-231.42,29.18-177.87,428.16,59.41,360.82,88.79-22.2,127.91-118.02,118.39-203.25-5.91-91.97-81.17-170.26-177.58-157.59l-.22.03ZM1803.28,1408.11c-232.13,32.31-179.24,420.38,52.86,362.61,51.77-12.3,90.5-48.69,109.89-97.2,16.47-40.21,19.82-90.27,10.3-135.38-16.46-79.43-88.94-141.52-172.84-130.06l-.22.03ZM236.54,1769.44h44.99l2.72-3.28.3-138.67c46.07,5.63,98.47,2.97,136.11-27.33,47.92-36.79,50.76-123.29,3.35-161.58-17.12-13.57-38.24-20.36-59.73-23.99-19.91-3.29-39.85-3.8-58.93-3.17-20.79,1.3-49.51,4.51-68.81,6.13v351.89ZM1120.21,1769.2c11.97.59,25.96.27,38.06.15,2.47-.14,3.44-.46,3.81-1.19,1.97-25.67,14.31-267.38,16.02-295.5,1.31-7.72,7.85,10.81,8.2,13.1,22.78,88.53,56.77,173.56,85.25,260.32,2.16,6.1,3.88,12.99,8.88,17.13,4.1,3.57,11.59,4.53,17.91,4.3,6.27-.03,13.12-1.96,16.83-7.02,2.04-2.53,3.63-5.73,4.98-9.11,33.04-91.42,68.43-182.1,98.33-274.57,1.65-4.78,2.98-9.73,3.16-5.93,3.61,62.2,13.99,249.97,16.63,295.47.09.83.03,1.64.62,2.19.26.24.66.41,1.26.54.48.11,1.1.18,1.87.24,1.93.09,4.26.17,6.33.15,5.22,0,12.94.02,19.13,0,4.67-.11,9.68-.35,13.81-2.27,2.42-1.25,2.88-2.85,3.08-4.36-2.32-31.04-21.28-324.01-24.24-347.75-1.77-.77-4.01-.64-6.21-.68-9.83-.13-26.01.06-37.94,0-13.63-.44-15.27,4.05-19.63,16.12-32.41,86.25-66.25,172.39-92.56,260.79-1.63,3.7-3.49,5.42-5.25,4.26-2.4-1.46-4.29-7.98-5.12-11.52-21.89-87.89-57.59-171.8-87.21-257.25-3.63-9.59-8.41-13.11-18.45-13.34-10.76-.45-28.45-.84-38.43.54-3.03.61-6.31,1.2-6.4,4.02-2.68,42.04-19.73,276.96-24.56,349.66.06,1.05.47,1.28,1.77,1.52h.07ZM2211.01,1415.42c-12.09-3.68-29.26-1.73-42.31-1.2-6.01,1.05-6.31,2.42-6.52,5.16.01,10.53-.01,20.5,0,31.38.38,85.1-.72,296.77.39,317.84,9.03,1.91,24.99.36,34.54.82,3.12-.4,9.63,1.2,9.03-2.93-.31-43.46-2.39-226.13-2.9-286.12-.28-9.97,8.81,7,10.43,10.15,15.61,30.97,32.9,60.73,50.98,90.26,36.9,60.24,76.28,119.11,114.23,178.7,4.29,7.62,10.86,10.2,19.08,9.92,8.81-1.14,31.94,3.61,34.17-5.4-.23-36.65.18-109.66,0-159.66-.29-85.54.56-170.67-.31-186.9-2.47-5.73-38.45-6.05-41.05.69-5.41,90.63-4.41,183.99.39,274.93-.66,11.26-7.25-1.24-9.22-5.2-48.36-93.19-108.6-187.66-170.81-272.39l-.12-.07ZM2858.29,1769.21c10.44.67,22.45.11,33.49.25,3.97-.12,8.22-.27,11.66-1.82,1.86-.83,2.31-2.62,1.72-4.33-32.43-88.13-107.82-316.94-123.6-348.31-4.95-1.73-10.9-1.68-16.34-1.86-9.36-.11-22.12.11-29.16.55-2.88.39-7.86-.14-8.82,2.46-17.59,51.34-97.6,282.54-121.14,351.12-.18.55-.45,1.19-.01,1.59.21.17.58.3,1.19.39,2.6.24,5.51.24,8.28.24,8.08,0,21.73.01,29.16,0,1.51.03,3.16-.05,4.52-.07,3.62-.29,4.22-.03,5.06-2.18,8.17-24.27,94.44-289.69,100.76-307.16.23.04.52,1.08,1.17,3.04,24.17,73.81,56.14,171.44,80.47,245.75,10.09,30.77,17.45,53.41,19.28,58.81.42,1.01.91,1.29,2.22,1.52h.07ZM710.53,1898.8c-5.59-8.31-30.19-5.64-38.77-2.51-10.99,3.44-20.46,12.09-19.81,24.09.85,20.74,28.1,25.2,41.92,33.48,8.17,4.55,11.45,15.14,4.74,22.37-5.61,5.73-14.43,7.06-22.67,7-6.92.57-21.03-5.58-24.11,1.37-1,6.26,7.3,8.57,12.43,9.23,25.77,4.23,58.4-4.74,53.98-31.72-2.21-14.32-16.82-20.04-28.92-25.1-10.05-4.28-23.55-9.92-19.68-22.39,2.31-6.62,9.68-9.35,16.22-9.8,6.25-.78,14.2.87,19.46,0,2.94-.34,7.35-2.41,5.26-5.93l-.06-.1ZM789.35,1955.67c2.22-1.3,6.07-.93,10.63-1.09,14.68-.48,31.25-7.16,37.71-21.14,5.28-11.71-.23-27.05-11.52-33.27-12.02-6.76-27.16-6.55-40.5-5.98-5.28.59-13.05-.25-13.43,5.48-.29,19.27-.29,71.22,0,89.9.22,1.64,1.14,2.65,2.59,3.19,3.27,1.21,8.93.9,10.63-3.75.58-1.59.71-3.31.79-5.05.13-5.02.02-12.26.07-17.93-.05-3.51.37-9.18,2.94-10.31l.1-.06ZM1083.37,1903.28c1.54-1.11,1.94-3.07.75-4.72-5.22-6.86-21.55-5.57-29.65-5.15-23.75,1.76-45.19,15.25-50.07,39.43-8.65,41.46,22.46,65.28,61.61,61.92,5.24-.57,10.79-1.34,14.4-3.7,5.32-3.33,5.62-8.08-2.7-8.32-3.71-.17-8.42.88-12.89,1-29.99,1.61-54.59-22.21-44.94-51.08,4.7-16.49,17.85-25.87,34.97-27.46,5.36-.62,10.91-.59,16.25-.2,4.27.41,10.01.17,12.18-1.65l.09-.07ZM1840.13,1898.76c-4.92-7.82-29.76-6.04-38.04-4.24-16.1,3.22-31.36,11.88-39.57,26.31-8.88,15.63-8.23,37.18,1.97,52.03,12.05,17.05,34.09,22.41,54.17,21.97,5.66-.25,13.18-.46,17.29-2.94,6.23-3.68,4.76-9.34-3.41-9.48-4.47-.03-10.56,1.32-15.67,1.16-11.14-.01-22.57-2.77-31.21-9.89-18.13-14.85-16.27-50.18,4.26-62.04,7.71-4.75,16.48-6.71,25.86-7.06,5.62-.33,11.9.79,17.01.19,4.57-.64,8.98-2.13,7.39-5.91l-.05-.1ZM1971.42,1906.06c-20-19.76-56.45-16.04-74.72,4.44-10.59,11.65-12.72,29.28-9.98,44.43,5.42,32.41,37.76,48.52,68.18,36.47,32.99-12.38,40.91-61.05,16.66-85.2l-.14-.14ZM953.72,1898.31c-1.72-2.58-5.95-2.92-9.1-2.89-10.94-.02-31.17-.01-41.4,0-2.5.05-5.32-.11-7.48.63-1.75.75-1.77,2.28-1.89,4.16-.13,17.72,0,68.61-.04,86.23-.24,7.02,1.34,6.87,8.64,6.94,4.91.02,12.41,0,20.22,0,8.19,0,16.69,0,22.8,0,4.77,0,8.07-.5,9.51-2.2,2.75-3.74-.6-8.21-6.45-9.23-9.68-1.31-23.62-.03-33.5-.76-5.82-.2-6.7-4.14-6.8-9.07-.09-5.29-.25-11.98.15-17.5.24-7.66,6.35-7.14,12.69-7.22,6.6-.17,16.58.4,22.7-.41,8.34-1.35,8.85-9.32.52-11.09-5.87-.96-15.11-.33-21.55-.5-4.15-.11-7.65.27-10.97-1.08-4.81-2.39-3.29-10.98-3.59-16.49.06-2.71.04-5.6.81-8.15,1.66-5.88,10.92-3.86,16.34-4.26,7.15-.24,17.28.58,23.62-.58,4.78-1.14,6.3-4.15,4.85-6.43l-.05-.08ZM1151.5,1895.94c-3.03-.81-7.53-.91-9.93.94-1.14.99-1.17,2.8-1.19,4.37.09,17.23-.21,71.15.11,88.29.41,3.49,3.78,3.74,7.26,3.82,4.15-.08,6.83-1.27,6.6-5.2.04-3.21,0-8.23.02-14.32v-26.52c0-13.02,0-24.6,0-35.84,0-2.42,0-4.7,0-7.05-.12-4.83.64-7.31-2.77-8.48l-.1-.03ZM1259.41,1895.61c-3.52-.97-9.47-.33-13.47,1.21-3.18,1.29-4.5,3.48-5.68,6.49-6.59,17.64-24.78,67.19-31,83.98-.54,1.67-1.53,3.72-.2,4.97,1.83,1.54,6.87,1.73,10.95-1.51,6.3-5.53,7.62-15.97,11.94-23.07,3.24-6.5,11.66-5.07,17.97-5.28,6.13.32,14.02-.95,19.28,1.56,3.75,2.03,5.72,8.45,7.63,12.9,1.77,4.16,3.12,8.6,5.92,12.11,3.8,4.68,10.27,4.98,13.61,4.04,2.32-.56,2.31-2.43,1.51-4.41-2.88-7.75-10.16-26.81-17.27-45.59-4.53-11.92-8.4-22.16-12.24-32.27-.83-2.2-1.62-4.27-2.43-6.4-1.9-4.99-2.63-7.57-6.42-8.69l-.12-.03ZM1361.16,1896.13c-3.6-1.13-10.22-1.26-11.01,3.13-.52,17.3-.02,71.19-.18,88.19.1,2.67-.35,5.51,3.11,5.78,11.93.52,30.62.07,43.68.22,6.77-.26,13.03,1.03,15.06-3.12,1.06-2.85-.87-7.04-5.93-8.21-3.54-.87-8.75-.67-14.74-.7-6.42,0-13.39.02-18.07-.02-3.9-.24-7.11.4-8.37-2.29-1.27-17.61.05-59.93-.51-78.41-.09-2.15-.84-3.78-2.93-4.54l-.1-.04ZM1518.03,1898.14c-.79-2.09-3.76-2.89-6.2-2.81-14.18-.03-53.83-.02-68.56,0-7.82-.54-9.83,6.82-1.6,9.15,5.7,1.59,17.04.31,22.51,1.81,4.46.94,5.47,2.86,5.85,6.81.45,19.9,0,58.9.18,73.66.04,1.48.13,2.95.85,4.1,2.31,3.16,8.43,2.99,11.46,1.16,1.78-1.17,1.88-3.35,1.92-5.36.03-12.27,0-43.91.01-60.74.01-6.34-.03-11.61.03-14.94-.27-5.48,3.51-5.39,7.87-5.57,4.6-.18,11.49.11,16.85-.21,3.84-.2,10.38-2.07,8.87-6.97l-.03-.08ZM1593.1,1951.22c1.31,7.72.38,20.05.65,28.68.1,3.58-.27,7.11,1.36,10.16,2.72,4.27,10.15,4.39,13.62,1.05,3.1-3.98,1.74-9.39,2.07-14.35,0-5.98-.02-13.83.01-19.33-.16-6.32.69-10.46,4.33-15.32,7.18-10.65,20.89-30.68,27.31-40.27,2.22-3.33,3.1-5.84-2.45-5.67-6.98.12-12.7,3.07-15.87,9.58-4.42,7.85-12.05,21.87-15.93,28.69-1.02,1.57-1.93,3.67-3.58,4.32-2.39.23-4.27-4.36-6.84-8.21-4.67-7.67-9.78-16.09-14.51-23.86-2.8-4.61-4.68-7.75-7.73-9.35-3.57-1.86-8.16-2.17-12.03-1.7-4.64.58-3.48,3.23-1.64,6.12,5.48,8.51,17.58,26.85,24.24,37.06,2.49,3.9,6.3,9.1,6.96,12.28l.03.11ZM2097.31,1898.12c-1.63-2.53-5.59-2.86-8.61-2.84-10.37-.02-29.64,0-39.55,0-2.67.24-7.41-.67-8.76,1.85-.42,1-.43,2.18-.47,3.33-.03,23.48-.04,71.71,0,87.19.05,1.66.27,3.25,1.56,4.25,2.62,1.97,8.12,1.89,10.56-1,1.57-1.71,2.01-4.64,2.04-8.69.04-6.33,0-15.44.03-21.85,0-7.73.31-10.93,8.69-10.87,6.92-.21,15.72.14,22.78-.2,3.23-.2,7.03-1.29,8.11-4.55.81-2.57-.78-5.5-4.74-6.64-5.63-1.31-14.84-.47-21.13-.7-6.16-.14-13.18.91-13.47-6.81-.41-4.69-.24-10.33-.21-15.26.09-5.31.53-9.82,7.08-9.89,6.2-.3,14.35-.09,20.98-.15,4.27-.01,7.97.09,10.56-.58,4.61-1.15,6.03-4.21,4.6-6.52l-.05-.08ZM2211.28,1898.12c-1.63-2.53-5.59-2.86-8.61-2.84-10.37-.02-29.64,0-39.55,0-2.67.24-7.41-.67-8.76,1.85-.42,1-.43,2.18-.47,3.33-.03,23.43-.04,71.74,0,87.19.05,1.66.27,3.25,1.56,4.25,2.62,1.97,8.12,1.89,10.56-1,1.57-1.71,2.01-4.64,2.04-8.69.04-6.38,0-15.61.03-22.06,0-7.04.28-10.62,8.05-10.62,4.99-.19,13.03-.02,19.3-.12,4.86-.14,11.68-.29,13.63-5.55,1.45-7.56-10.12-6.25-16.02-6.46-3.96,0-8.19,0-11.79,0-6.28-.11-12.72.78-12.94-6.98-.37-5.19-.25-11.52-.13-16.48.14-5.32,1.37-8.43,7.38-8.52,6.32-.25,14.71-.07,21.38-.12,4.21,0,7.78.05,10.25-.71,4.24-1.23,5.52-4.17,4.14-6.4l-.05-.08ZM2327.37,1898.31c-1.72-2.53-5.97-2.92-9.1-2.89-10.55-.03-29.72-.01-39.47,0-2.48.06-5.29-.11-7.41.69-1.65.76-1.69,2.3-1.8,4.1-.13,17.69,0,68.31-.04,86.09-.26,7.23,1.35,7.01,8.83,7.08,4.97.01,12.51,0,20.33,0,8.1,0,16.47,0,22.51,0,4.69,0,7.98-.48,9.44-2.13,2.87-3.7-.48-8.28-6.38-9.3-9.68-1.31-23.62-.03-33.5-.76-5.82-.2-6.7-4.14-6.8-9.07-.09-5.29-.25-11.98.15-17.5.24-7.66,6.35-7.14,12.69-7.22,3.55-.01,7.75,0,11.72,0,6.49-.07,16.55.94,17.49-5.8-.28-6.66-9.98-6.26-16.21-6.2-3.74,0-7.78,0-11.34,0-4.07-.11-7.57.25-10.85-1.03-4.94-2.32-3.4-10.87-3.71-16.34.12-6.47-.18-12.56,8.22-12.5,6.08-.24,14.16-.07,20.58-.12,4.14,0,7.69.01,10.22-.7,4.53-1.22,5.97-4.1,4.53-6.31l-.05-.08ZM2443.89,1898.31c-1.76-2.54-6.08-2.91-9.26-2.89-10.74-.03-30.23-.01-40.15,0-2.52.06-5.38-.11-7.54.69-1.71.8-1.72,2.33-1.84,4.21-.07,18.97-.08,69.31,0,88.27-.08,5.45,3.72,4.57,9.07,4.78,5.15.02,12.95,0,20.88,0,7.15,0,14.33.01,19.69,0,2.56-.04,5.12-.08,7.56-.66,7.19-1.77,6.6-9.17-.86-10.61-7.88-1.37-18.87-.48-27.22-.72-4.69-.17-8.46.47-11.91-1.44-2.44-1.76-2.4-5.2-2.59-8.02-.11-4.51-.13-10.3,0-15.07-.04-9.63,4.67-9.4,13.05-9.46,3.61-.01,7.88,0,11.92,0,6.56-.09,16.8.97,17.79-5.8-.31-6.7-10.19-6.25-16.49-6.2-3.8,0-7.92,0-11.54,0-4.14-.11-7.69.25-11.04-1.03-5.03-2.35-3.46-10.82-3.77-16.34.14-6.63-.17-12.51,8.36-12.5,6.18-.24,14.4-.07,20.93-.12,4.21,0,7.83.01,10.39-.7,4.6-1.22,6.07-4.1,4.6-6.31l-.05-.08ZM1219.01,2726.13c-8.27.54-16.53.49-24.81.36-8.55.13-21.59-.91-21.04.74,11.9,4.07,31.02,7.64,45.46,11.52,14.43,2.95,25.04,7.81,38.7,7.16,19.2-1.43,29.23-18.85,42.82-31.43,23.9-22.1,61.91-22.6,81.39-50.53,12.01-15.83,16.38-37.54,27.79-52.99,6.15-8.01,15.61-11.54,25.35-13.66,16.12-3.4,33.35-4.05,47.72-12.66,21.94-9.95,57-60.5,43.98-.57-11.03,51.29-57.16,76.41-93.7,108.4-3.92,4.44-6.49,9.76-7.63,15.79-1.93,9.83-.67,20.56-4.42,29.9-13.45,28.86-63.97,32.28-94.68,39.17-4.4,1.12-5.76,2.45.12,3,30.26.4,94.88-1.39,120.01-16.31,32.69-22.76-1.75-65.49,61.34-83.92,22.74-5.98,30.25,15.85,32.54,34.1,3.1,22.39,3.85,45.53-4.63,66.3-2.01,7.63-19.83,30.03.53,16.75,50.88-31.18,37.21-84.53,29.98-138.21-1.14-13.74,3.61-26.85,11.8-37.61,8.63-12.25,18.03-8.96,25.33,2.19,5.95,8.36,9.65,18.2,10.03,28.47.44,23.98-8.25,47.84-7.13,72.32-.15,23.9,2.3,42.69,21.01,59.33,3.55,3.37,30.42,26.44,25.54,14.89-1.46-3.92-5.69-10.86-8.23-16.77-2.83-6.26-4.44-12.66-5.51-19.54-2.97-21.73-3.74-61.47,11.74-77.99,10.91-10.12,27.48-3.14,38.93,3.15,9.63,5.47,17.9,13.37,21.65,23.9,6.67,19.57,3.63,46.24,26.95,55.85,13.02,5.75,31.29,7.37,46.33,9.4,12.15,1.9,24.03,2.52,36.92,2.79,7.55.24,15.72.47,23.17.7,5.57.03,13.6.81,14.27-.82-5.35-2.65-13.91-3.47-20.3-4.7-25.24-5.08-57.38-8.75-74.62-27.92-8.96-10.56-7.71-25.96-10.01-38.91-4.86-31.86-79.56-48.57-99.68-117.89-2.84-8.93-11.93-45.04,7.86-31.17,10.12,7.27,21.2,17.56,31.84,24.2,28.57,19.66,65.61,3.33,81.64,37.85,6.4,12.44,11.26,27.18,18.82,39.06,14.78,24.85,43.81,30.9,68.14,42.76,7.66,3.9,14.42,9,20.35,15.32,7.53,7.83,14.13,17.28,23.45,23.07,14.02,8.36,25.47,4.87,41.98.66,11.78-2.86,24.07-5.88,35.81-8.73,5.35-1.31,10.26-2.5,14.18-3.46,6.17-1.51,9.75-2.36,8.7-2.72-13.49-.9-33.14.14-47.18-.61-16.63-.89-35.95-4.08-48.68-15.92-6.82-6.09-12.76-13.18-20.2-18.62-15.98-12.64-40.21-15.42-54.34-31.08-13.61-16.71-11.7-40.72-22.61-58.99-21-34.97-64.65-48.56-88.33-81.19-13.62-20.31.39-29.35,20.12-19.86,47.61,20.75,86.75,66.83,133.44,88.14,20.34,7.98,41.45,7.84,63.95,9.91,9.81.63,19.31,1.2,29.09.65,27.95-1.26,52.72-14.25,78.07-24.28,56.47-25.41,99.94-1.27,155.37,10.24,34.81,7.09,59.28-4.03,89.4-19.98,9.07-4.52,19.79-10.68,29.43-16.24,2.78-1.56,5.65-3.28,8.24-4.8.52-.31,1.01-.61,1.48-.9,3.32-2.06,4.9-3.33,4.38-3.72-35.41,5.92-72.47,16.98-108.93,18.69-40.95.47-79.78-23.42-119.98-24.74-14.34-.65-28.88,1.37-43.09,3.52-21.08,3.25-41.72,7.61-62.81,9.58-71.56,8.84-129.59-29.27-170.87-85.73-9.91-12.94-5.7-15.81,8.9-13.18,36.94,6.12,73.38,16.16,110.17,23.43,15.69,3.17,31.71,6.95,47.67,8.77,31.17,4.94,59.25-13.82,88.25-22.36,22.96-6.79,44.07,1.42,64.9,12.83,20.34,11.03,38.58,24.42,58.99,32.49,34.75,12,78.25,7.64,119.96,3.3,34.75-4.29,61.2-8.57,88.13-33.86,9.06-7.96,16.39-16.74,24.54-26.1,1.24-1.39,2.45-2.87,3.56-4.2,2.26-2.75,3.22-4.28,2.46-4.33-.63-.07-2.36.86-4.74,2.29-31.79,20.78-68.83,33.12-106.53,37.43-11.35,1.02-23.93,2.85-35.12.08-14.07-4.52-3.45-11.11,4.73-14.04,33.34-10.6,29.6-50.86,35.57-81.31,2.96-17.72,13.78-34.86,21.29-50.29,6.08-12.35-5.44,3.92-6.68,6.12-20.66,31.78-36.09,81.43-70.23,99.48-21.57,10.33-48.09,3.73-70.13-2.37-36.77-10.6-72.71-25.64-111.36-24.6-40.23.76-74.81,25.62-114.45,6.3-52.25-22.61-105.05-59.36-151.57-88.38-33.99-23.41-81.44-49.06-98.8-82.77-26.57-57.65-38.6-122.08-53.89-183.52-.84-3.43-1.62-6.7-2.81-9.93-1.4-3.7-3.01-5.21-5.84-5.49-30.93-.06-151.91-.5-181.8.16-4.49.71-5.94,8.68-7.11,13.09-12.91,54.13-24.5,108.7-43.83,161.05-11.69,35.37-33.73,53.85-62.58,75.15-42.96,31.88-90.38,60.26-136.32,87.55-17.75,10.47-37.16,21.66-55.97,30.28-9.05,4.13-17.95,7.72-27.77,9.34-24.15,4.2-48.04-6.39-71.99-10.69-14.99-2.76-30.58-2.77-45.66-.73-46.06,3.78-112.54,45.58-153.25,26.95-29.37-14.9-43.91-47.04-58.78-74.78-6.62-11.75-12.52-25.5-21.64-35.06-.79-.37-.24,1.46,1.37,4.73,1.52,3.12,3.94,7.4,6.08,11.31,5.31,9.59,9.62,19.97,12.24,30.7,5.32,20.91,4.13,41.4,11.34,61.42,6.8,18.32,15.87,21.94,32.26,29.63,6.19,3.31,7.36,7.56.46,10.11-6.11,2.31-14.55,2.09-21.25,1.84-31.29-1.7-63.09-8.92-91.6-21.85-8.76-3.89-16.73-8.5-24.98-13.54-1.81-1.1-4-2.41-5.6-3.28-2.47-1.36-4.12-2.02-4.38-1.56-.63.69,4.81,6.72,6.63,8.71,21.37,24.29,43.03,47.08,76.17,53.08,38.15,7.13,77.01,11.47,115.9,9.93,16.09-.83,31.84-3.43,46.31-10.31,30.03-13.77,57.75-38.71,90.81-43.94,20.85-3.27,40.61,6.85,59.74,14.22,9.74,3.82,19.68,7.38,29.99,9.17,14.34,2.7,30.65.15,45.54-2.56,17.47-3.28,34.31-7.16,51.58-10.82,30.67-6.42,61.28-15.33,92.3-19.14,9.57-.54,8.72,4.56,3.9,11.68-48.62,67.74-109.54,98.73-193.68,86.61-19.11-1.77-37.98-6.09-56.7-9.55-46.35-10.07-89.6,16.27-135.05,22.22-37.73,1.63-75.15-8.79-111.81-16.66-4.61-.89-7.41-.93-7.2.23.27.85,1.05,1.51,1.79,2.13,17.94,11.68,39.99,23.27,59.79,32.52,56.7,31.38,119.5-16.07,180.38-12.11,40.55,3.04,74.54,30.56,114.83,34.8,21.52,2.02,44.11-.76,65.91-2.73,54.16-2.52,93.39-52.71,137.56-78.98,11.14-6.91,23.59-14.89,36.28-18.98,19.33-5.71,23.1,8.44,13.36,22.33-22.43,30.77-68.4,49.13-87.7,80.14-11.98,17.65-9.74,41.93-22.73,58.97-13.29,16.83-37.03,18.72-53.58,31.21-11.46,7.86-18.27,19.38-30.69,26.28-11.88,6.51-26.16,8.35-39.38,9.27h-.2Z"/>
  <path class="st0" d="M1516.3,1335.58l.02-98.99c-6.67-50.66-13.64-119.63-53.97-155.97-52.81-47.59-110.18-56.82-172.52-81.42-45.73-18.04-65.84-60.83-95.5-96.46-15.66-18.81-19.24-21.11-43.51-26.47-35.93-7.94-73.12-12.01-108.88-21.09-68.9-17.49-112.83-60.33-170.85-97.09-18.51-11.73-37.84-22.08-56.63-33.34l20.51,5.47c49.54,19.37,91,55.74,136.81,81.14,42.45,23.53,137.39,33.36,185.62,28.4,19.49-2,19.67-8.82,8.98-23.03-21.01-27.92-40.63-22.78-53.05-64.92s-18.85-88.88-37.42-130.53l-22.53-53.43c12.01,16.04,20.85,34.48,29.38,52.59,16.5,35.02,29,71.96,44.64,107.32,17.54,39.64,35.27,36.62,64.86,59.11,17.37,13.2,17.37,44.64,23.05,64.93,27.44,98.01,110.16,102.77,189,136.92,27.24,11.8,49.63,28.73,79.57,36.4,11.32,2.9,36.46,7.34,47.07,4.22,3.08-.91,4.23-3.85,5.73-6.26,18.56-29.72,14.92-101.74,9.41-136.13-4.16-25.96-15.86-32.58-29.43-52.55-20.57-30.26-39.85-63.78-54.71-97.25-10.31-23.21-17.55-53.02-29.56-74.41-17.71-31.52-61.62-47.49-89.02-70.94-31.46-26.94-50.91-66.78-55.01-107.93l16.36,34.61c17.27,30.37,52.6,52.56,82.99,68.97,11.78,6.36,32,17.87,45.24,14,7.59-2.22,25.43-46.01,31.76-56.21,13.9-22.42,31.47-39.05,59.59-39.36l-21.83,13.14c-42.41,34.06-39.98,94.68-29.54,143.19,11.77,54.69,42.77,114.96,97.39,136.55,14.16,5.6,18.01,5.82,32.53.57,45.93-16.61,78.55-69.13,91.97-113.98,16.74-55.96,25.21-137.79-32.7-172.32l-13.82-7.15c31.12-.85,51.88,22.21,65.6,47.35,5.87,10.76,15.33,38.57,22.28,45.7,10.6,10.88,44.02-8.34,55.45-14.73,43.62-24.39,79.66-51.94,93.62-102.34,3.06.05-4.7,29.49-5.56,32.45-11.14,38.48-31.88,64.84-63.62,88.34-32.56,24.1-63.39,32.98-80.77,73.19-21.44,49.58-34.52,90.78-64.16,137.78-11.39,18.06-38.23,47.18-42.38,65.59-6.8,30.22-8.03,103.83,2.56,132.48,7.79,21.06,16.68,19.73,37.77,17.81,35.75-3.26,61.85-23.11,92.73-37.24,78.89-36.09,171.63-41.24,197.51-142.4,4.09-15.99,5.98-51.01,19.01-60.97,19.5-14.91,48.56-22.92,61.55-46.43,26.05-59.17,45.82-122.27,81.33-176.58.35,2.7-1.53,6.8-2.63,9.35-7.8,18.1-16.95,35.47-23.9,54.08-15.82,42.36-22.34,84.56-35.46,126.49-5.9,18.87-12.73,26-26.97,39.01-12.11,11.07-29.59,19.4-31.82,37.58,1.18,4.76,10.25,6.95,14.76,7.39,42.75,4.16,140.18-4.42,178.37-23.64,38.13-19.19,74.71-50,113.24-70.72,14.7-7.9,31.53-16.32,47.73-20.27,1.97-.48,6.1-3.19,5.61.62-54.65,25.17-101.04,65.58-152.11,96.83-66.06,40.42-122.95,37.47-194.2,55.75-14.18,3.64-17.74,5.58-27.58,16.41-36.48,40.13-51.93,85.91-107.49,106.46-58.78,21.73-112.76,32.69-162.52,75.42-46.83,40.21-57.47,123.45-59.97,181.96-1.09,25.63.08,51.53,2.02,77h-141.97Z"/>
  <path class="st0" d="M1118.38,1769.44l24.87-354.01c1.35-2.02,3.87-1.8,6.03-1.97,7.15-.56,47.44-.81,51.12,1.06,1.25.64,2.14,1.93,2.88,3.12,27.63,80.63,60.07,159.97,84.08,241.83,3.56,12.14,5.77,24.75,9.07,36.92.75,2.76,1.31,5.4,4.9,5.09,26.94-97.88,66.08-191.94,100.89-287.03l58.22-.02,23.98,350.02-3.1,4.99h-42.99l-16.98-301.91c-31.18,98.51-69.42,194.58-103.98,291.93-2.62,5.36-3.54,7.38-9.91,8.08-5.35.59-25,.75-28.27-1.93l-2.39-3.61c-23.75-74.04-51.74-146.74-74.96-220.95-6.93-22.14-11.9-45.06-18.96-67.11-1.08-3.37.99-5.32-4.49-4.4l-16,299.9h-43.99Z"/>
  <path class="st0" d="M2211.17,1413.55c2.24.62,13.42,18.49,15.84,22.15,49.59,74.77,105.35,157.73,147.49,236.41,5.57,10.39,9.01,24.24,17.62,31.35-1.55-14.98-1.26-29.9-1.97-45.01-.18-3.86-1.96-7.54-2.11-11.88-2.66-75.95,1.95-153.66.37-229.74l2.72-3.28h37.99l3,3v349.89l-3,3h-43.99c-40.89-64.85-83.98-128.6-123.82-194.09-18.76-30.83-36.28-61.37-52.15-93.82-1.27-2.61-2.27-6.28-5.98-6.01l2.99,293.92h-43.99v-352.89l3-3h45.99Z"/>
  <path class="st0" d="M767.94,1408.05c85.41-10.98,157.2,49.83,173.51,131.42,19.26,96.36-15.81,207.11-120.94,231.05-238.99,54.41-278.63-333.42-52.58-362.47ZM778.02,1446.07c-152.17,8.38-143.42,299.27,9.52,291.47,151.35-7.72,143.03-299.87-9.52-291.47Z"/>
  <path class="st0" d="M1803.74,1408.05c87.12-11.2,159.52,53.74,173.97,136.97,19.03,109.59-31.75,221.9-152.45,230.44-212.78,15.06-238.01-339.57-21.52-367.41ZM1813.83,1446.07c-155.37,8.7-142.62,300.79,9.51,291.46,151.28-9.27,140.63-299.87-9.51-291.46Z"/>
  <path class="st0" d="M236.54,1422.24c0-2.65,2.02-4.87,4.66-5.11l60.31-5.59c44.29-1.87,103.3,1.91,134.03,37.97,29.51,34.63,29.63,98.35,1.81,133.84-34.34,43.81-94.83,50.69-147.11,44.83-3.04-.34-5.69,2.03-5.7,5.09l-.28,131.05c0,1.19-.42,2.35-1.18,3.27h0c-.98,1.18-2.42,1.86-3.95,1.86h-37.44c-2.84,0-5.14-2.3-5.14-5.14v-342.07ZM284.95,1584.93c0,2.44,1.72,4.54,4.11,5.04,60.31,12.55,127.42-7.59,121.53-81.53-4.71-59.18-74.33-67.05-121.57-57.4-2.39.49-4.1,2.6-4.1,5.04l.02,128.86Z"/>
  <path class="st0" d="M2856.05,1769.44l-101-309.91-100.97,309.91h-47.99l121.87-355c2.1-1.46,45.85-1.75,51.08-.87,1.58.27,3.02.64,4.19,1.8l121.91,350.01c1.83,1.18-1.87,4.05-2.11,4.05h-46.99Z"/>
  <path class="st0" d="M1248.35,1335.58h-83.98c-15.03-27.13-36.28-54.63-61.01-73.95-60.78-47.47-143.95-37.14-215.38-54.56-35.29-8.61-48.81-24.22-71.51-50.46-43.27-50.02-78.71-107.41-129.03-150.9l-21.95-16.05c36.49,7.1,67.25,35.68,92,61.96,44.79,47.57,83.46,116,154.14,123.8,57.39,6.33,122.82-8.71,179.2,6.77,42.91,11.78,75.8,55.71,103.52,88.43,18.18,21.45,34.11,44.93,54.01,64.96Z"/>
  <path class="st0" d="M1924.23,1335.58c31.32-30.38,55.48-67.78,84.94-100.01,35.48-38.81,59.29-56.57,114-59.96,49.66-3.07,105.37,6.92,153.44-2.53,57.63-11.33,94.95-73.15,132.49-113.45,27.23-29.24,59.17-62.65,100-69.96l-31.94,24.04c-43.45,39.86-75.13,90.29-113.03,134.91-45.19,53.19-58.17,56.35-127.2,66.75-47.33,7.13-107,8.26-148.57,33.4-34.53,20.88-58.29,54.56-81.14,86.82h-82.98Z"/>
  <path class="st0" d="M872.4,945.7c33.66,55.67,58,143.98-22.92,170.05-51.54-31.38-51.35-80.23-18.7-126.7,11.1-15.79,25.6-32.68,41.61-43.34Z"/>
  <path class="st0" d="M2303.16,945.73c44.34,39.06,94.67,107.39,37.03,158.96-15.92,14.25-21.57,13.3-38.69.61-54.61-40.46-29-112.33,1.65-159.58Z"/>
  <path class="st0" d="M907.53,625.84c49.84,23.35,105.23,72.23,81.24,133.29-6.72,17.11-9.17,24.89-28.87,22.13-65.84-9.24-73.29-70.8-62.57-125.54.92-4.68,6.8-29.12,10.19-29.87Z"/>
  <path class="st0" d="M2268.14,625.81c23.99,65.97,19.36,158.93-71.61,155.57-12.88-21.93-22-42.13-15.79-68.05,8.1-33.81,39.92-62.08,68.8-79.16,2.93-1.74,16.96-10.09,18.6-8.36Z"/>
  <path class="st0" d="M1579.83,534.37c44.98-4.53,73.44,52.32,76.46,90.42,3.45,43.63-14.29,116.21-66.98,120.98-49.25,4.45-77.46-57.92-78.33-99.34s20.21-107.16,68.86-112.06ZM1568.29,727.76c-7.27-15.93-11.99-30.6-9.5-48.47,4.7-33.66,40.84-57.13,36.9-91.86-.79-6.93-9.48-38.1-16.31-38.91-22.15,4.71-35.95,23.22-44.06,43.32-14.75,36.55-11.64,93.96,15.94,123.98,2.17,2.36,14.74,14.11,17.03,11.95ZM1586.43,731.66c44.09-6.08,59.42-66.83,55.65-104.66-2.24-22.46-15.06-60.63-35.78-72.19-10.52-5.87-2.51,4.67-1.03,9.03,18.39,54.23-11.4,61.69-27.33,102.58-9.86,25.29-2.7,42.06,8.5,65.24Z"/>
  <path class="st0" d="M1824.23,805.75c-4.03,15.43-6.71,26.86-3.81,42.81,4.77,26.26,25.47,47.78,21.67,76.01-2.75,20.41-24.45,35.11-42.87,40.36-74.79-34.13-47.57-140.67,25.01-159.18Z"/>
  <path class="st0" d="M1004.02,872.16c7.31-.22,30.18,3.08,34.19,8.74,2.86,4.03,8.1,24.61,8.27,29.88.3,8.94-4.72,20.92-10.13,27.89-21.53,27.79-67.44,21.19-88.84,51.12-3.12,4.36-3.94,10.14-8.11,13.86-28.45-43.3-2.31-116.87,48.88-129.04,3.59-.85,12.35-2.35,15.73-2.45Z"/>
  <path class="st0" d="M1350.34,807.75c72.91,14.31,96.84,124.44,24.66,157.55-14.29-5.38-31.99-13.98-39.08-28.18-16.66-33.34,14.54-60.86,18.24-92.57,1.54-13.16-1.1-24.21-3.81-36.8Z"/>
  <path class="st0" d="M2236.14,1003.68c-4.66.91-3.16-.43-4.41-2.58-2.74-4.7-4.2-9.96-7.55-14.43-21.43-28.55-75.06-20.14-91.74-56.22-8.43-18.23-6.19-51.68,17.19-56.28,72.73-14.32,117.33,68.64,86.51,129.51Z"/>
  <path class="st0" d="M2660.08,1041.68c2.28,2.15-10.51,19.28-12.95,22.03-23.12,25.93-60.57,32.92-93.53,27.46-24.02-3.98-52.17-15.73-63.05-38.77,3.63-15.29,14.73-33.45,29.55-39.72,30.6-12.94,52.46,8.8,78.62,19.37,19.48,7.87,40.38,10.81,61.35,9.63Z"/>
  <path class="st0" d="M512.49,1041.67h28.99c26.86,0,55.25-25.92,80.49-31.48,32.46-7.15,52.66,13.27,61.75,42.5-13.72,23.41-40.39,35.06-66.45,38.77-42.78,6.09-85.86-8.87-104.79-49.79Z"/>
  <path class="st0" d="M1981.23,1101.68l-4.84,19.14c-6.94,46.37,56.11,95.87.49,130.45-16.24,10.1-23.42,12.09-38.7-.64-31.7-26.4-30.4-78.75-9.63-111.67,11.94-18.93,32.01-30.03,52.68-37.28Z"/>
  <path class="st0" d="M1192.38,1101.65c32.08,9.3,58.27,34.4,65.47,67.48,6.66,30.57.24,69.21-28.83,86.13-12.22,7.11-17.85,4.85-29.33-1.99-55.77-33.24-3.35-79.22-1.42-122.91.4-8.92-3.94-20.04-5.89-28.72Z"/>
  <path class="st0" d="M2496.12,785.75c-24.46,44.97-83.12,57.43-129.54,42.55-12.31-3.94-39.73-20.33-38.08-35.06,1.84-16.45,22.65-38.21,39.11-41.03,32.04-5.48,47.99,16.9,74.54,26.52,4.45,1.61,21.63,7.01,24.98,7.01h28.99Z"/>
  <path class="st0" d="M678.46,785.75h28.99c25.8,0,55.47-30.02,80.49-33.49,19.37-2.69,33.44,2.24,45.33,17.65,18.74,24.28,11.51,42-15.45,54.21-46.23,20.93-115.31,10.15-139.36-38.37Z"/>
  <path class="st0" d="M2025.57,727.13c-9.54,9.12-12.99,7.13-24.06,2.35-64.8-27.96-30.8-116.22-2.29-159.63,16.17,22.28,29.89,47.83,37.53,74.41,7.7,26.8,10.94,61.74-11.18,82.87Z"/>
  <path class="st0" d="M1176.34,569.82c18.66,35.93,35.94,71.04,32.03,112.98-1.74,18.63-15.51,35.61-31.38,44.6-13.94,7.9-20.8,9.52-31.66-3.57-32.19-38.78-2.09-110.62,23.38-146.67,1.96-2.77,4.4-6.05,7.65-7.33Z"/>
  <path class="st0" d="M604.48,1149.62c-1.32-4.74,1.3-3.34,2.58-4.48,37.82-33.79,106.29-76.03,150.44-29.54,12.7,13.37,13.85,20.7.95,35.04-35.15,39.07-111.9,14.23-153.97-1.02Z"/>
  <path class="st0" d="M2570.1,1149.62c-51.31,16.98-135.19,47.03-165.31-16.99,37.72-71.21,124.22-26,165.31,16.99Z"/>
  <path class="st0" d="M2400.15,873.73c38.83,27.67,84.46,87.11,38.98,129.96-4.28,4.03-18.65,13.42-24.15,14-10.44,1.11-27.63-11.97-33.89-19.95-33.43-42.57,19.12-80.13,19.06-124.01Z"/>
  <path class="st0" d="M774.44,873.73c-1.82,41.64,41.5,69.32,24.97,111.93-3.24,8.35-9.25,16.29-16.31,21.68-18.19,13.87-27.03,13.38-44.49-.81-49.43-40.15-7.86-101.11,30.82-130.83,1.74-1.34,2.03-2.72,5.01-1.97Z"/>
  <path class="st0" d="M1852.23,727.78c1.2,1.08-8.08,15.27-9.55,17.43-32.74,48.48-84.5,82.62-138.16,39.36,5.27-25.97,22.41-45.23,47.18-54.35,22.08-8.13,52.39-9.1,75.54-6.45,8.34.95,16.4,4.56,24.98,4.01Z"/>
  <path class="st0" d="M1322.33,727.78c8.38-.23,16.75-3.09,24.99-4.02,42.76-4.85,98.73.84,117.35,46.65,6.31,15.51,3.93,16.75-10.32,24.39-42.6,22.82-80.43,1.88-109.06-30.99-5.74-6.59-18.6-22.74-21.91-30.07-.94-2.07-1.39-3.65-1.05-5.95Z"/>
  <path class="st0" d="M1999.84,944.14c14.62-.88,35.29,5.93,48.46,12.47,19.79,9.83,38.16,26.75,53.87,42.08-50.72,31.78-130.1,40.01-151.69-29.72,11.3-14.7,30.94-23.72,49.36-24.83Z"/>
  <path class="st0" d="M1167.98,944.18c20.52-.93,41.47,8.88,55.4,23.46-2.91,15.8-17.1,34.85-30.34,43.72-32.91,22.06-89.64,7.98-120.63-12.68,23.68-25.12,59.67-52.88,95.57-54.51Z"/>
  <path class="st0" d="M1780.26,1233.62c51.76-5.51,142.89-8.85,130.96,67.97-36.38,36.46-82.75-5.27-108.02-33.94-5.8-6.58-16.79-19.82-21-26.99-1.44-2.45-2.68-3.73-1.95-7.04Z"/>
  <path class="st0" d="M1394.32,1233.62c1.37,1.23-7.61,13.72-9.14,15.84-21.54,29.69-73.22,85.71-113.51,59.82-4.82-3.1-8.77-6.79-9.42-12.57-8.16-72.92,83.19-67.87,132.08-63.08Z"/>
  <path class="st0" d="M1068.4,1043.67l26.64,14.34c40.85,27.4,76.94,72.91,41.42,120.69-64.98-4.02-74.8-84.15-68.06-135.04Z"/>
  <path class="st0" d="M2106.19,1043.67v52.98c0,6.77-5.32,24.9-7.95,32.03-6.5,17.56-19.45,37.34-37.3,44.68-4.57,1.88-20.53,6.88-23.77,4.46-8.12-6.09-15.11-29.02-15.11-39.18,0-31.13,27.06-58.41,50.33-75.78,9.93-7.41,21.97-15.5,33.8-19.19Z"/>
  <path class="st0" d="M1888.24,1143.63c-8.32,1.79-16.75,4.61-25.2,5.82-18.26,2.6-45.2,2.57-62.17-5.43-23.77-11.2-35.13-38.54-32.25-64,54.2-34.12,103.4,12.69,119.61,63.61Z"/>
  <path class="st0" d="M1406.04,1079.93c1.55,21.75-7.19,48.1-26.32,60.1-27.81,17.46-65.31,10.57-95.38,3.59,19.38-51.13,64.98-97.11,121.7-63.69Z"/>
  <path class="st0" d="M2089.55,587.17c-12.22,12.27-26.43,9.9-39.39-.3-29.19-22.98-5.18-57.14-5.79-86.03-.22-10.55-5.02-21.16-8.15-30.98,39.23,13.44,73.16,38.58,67.79,84.79-1.16,9.97-7.36,25.39-14.46,32.52Z"/>
  <path class="st0" d="M1137.39,469.88l-4.47,11.51c-13.53,33.95,27.36,87.66-14.72,109.24-14.57,7.47-23.6,7.59-34.86-4.77-13.37-14.67-15.66-39.23-12.05-58.13,5.6-29.32,40.18-48.86,66.11-57.85Z"/>
  <path class="st0" d="M960.42,1287.59c31.16,14.71,55.47-18.44,85.15-21.8,18.93-2.15,34.04,5.96,43.21,22.4,5.61,10.05,3,16.21-3.5,25.29-18.72,26.17-57.48,26.86-84.86,15.08-16.52-7.11-34.77-23.5-40-40.97Z"/>
  <path class="st0" d="M2214.16,1287.59c1.32,1.36-8.34,14.93-10.01,16.97-22.99,28.08-66.09,40.87-99.32,23.39-23.42-12.32-31.23-34.95-8.67-53.4,39.76-32.53,77.61,31.56,118.01,13.04Z"/>
  <path class="st0" d="M608.24,1335.35l-18.75.22c-6.37-1.1-19.03-19.24-22.63-25.36-19.28-32.78-19.66-69.18,2.8-100.49,45.08,23.4,56.88,80.25,38.57,125.63Z"/>
  <path class="st0" d="M2601.34,1209.74c6.14-1.42,17.1,27.49,18.31,33.31,4.89,23.43-1.54,48.93-13.94,69.15-3.33,5.44-15.3,22.45-20.63,23.35s-12.22-.24-17.73-.23c-4.4-1.46-8.62-23.33-9.26-28.72-4.7-39.83,10.21-74.38,43.25-96.86Z"/>
  <path class="st0" d="M944.42,571.82c7.78,7.4,18.59,10.72,29.18,11.79,20.66,2.09,43.1-4.96,62.24,1.75,15.24,5.34,23.4,26.14,24.27,41.07-47.6,46.05-114.79,7.33-115.7-54.6Z"/>
  <path class="st0" d="M2230.16,571.82c-4.5,51.51-46.29,91.06-98.68,67.69-10.95-4.88-18.62-7.28-16.79-20.21,3.16-22.2,19.61-37.75,42.5-37.67,4.33.02,8.12,2.12,11.97,2.2,21.41.44,43.23,1.83,60.99-12.02Z"/>
  <path class="st0" d="M1570.29,387.89c-8.23,35.86-25.89,105.85-73.03,104.07-17.14-.64-24.2-9.59-22.84-26.87,2.91-36.94,63.5-69.41,95.87-77.21Z"/>
  <path class="st0" d="M1604.29,387.88c2.42-2.51,41.41,17.31,46.61,20.36,27.02,15.88,60.97,44.99,42.41,79.64-58.04,21.62-81.75-57.33-89.02-100.01Z"/>
  <path class="st0" d="M1202.36,553.83c49.1-9.52,105.41,4.11,119.14,58.04-45.02,23.45-89.41,1.95-112.18-40.01-1.39-2.56-8.98-16.58-6.96-18.03Z"/>
  <path class="st0" d="M1972.22,553.83c-11.61,35.42-45.19,70.32-84.99,67.99-5.81-.34-33.63-5.89-34.78-11.22,15-53.4,70.59-66.07,119.77-56.77Z"/>
  <path class="st0" d="M2350.13,909.71c-5.1-3.15-8.48-8.07-13.33-11.65-23.32-17.22-52.82-13.09-79.5-16.48-16.42-2.09-26.54-16.46-26.45-32.49.1-16.9,4.92-19.74,19.73-23.92,56.92-16.05,87.16,37.87,99.54,84.54Z"/>
  <path class="st0" d="M826.41,909.7c-3.51.52-2.12-4.67-1.58-6.57,7.89-27.89,30.41-69.39,59.96-78.01,18.2-5.31,38.14-2.99,54.59,6.64,4.77,13.59,5.6,33.48-7.09,42.85-13.4,9.9-36.36,6.96-52.89,9.1-18.76,2.43-44.02,8-53,25.99Z"/>
  <path class="st0" d="M723.09,1254.24c-1.9,1.79-2.8,5.74-5.64,7.35-1.54.29-1.19-1.83-1.02-3.01,4.95-32.71,35.6-80.82,71.19-84.76,11.35-1.26,38.41,4.83,43.81,15.81,3.67,7.46,1.15,26.85-4.11,33.87-12.36,16.52-40.05,10.71-57.89,12.09s-33.69,6.74-46.34,18.64Z"/>
  <path class="st0" d="M2622.1,1335.58c20.15-49.93,68.19-78.56,121.77-61.78,5.02,7.34-13.01,33.9-18.77,39.81-3.43,3.52-29.09,21.97-32.02,21.97h-70.99Z"/>
  <path class="st0" d="M550.48,1335.58h-68.99c-2.22,0-23.77-14.18-27.03-16.96-13.59-11.56-22.96-27.39-25.97-45.01,52.84-15.4,104.29,9.99,121.99,61.97Z"/>
  <path class="st0" d="M1772.18,463.91c2.1,8.63,7.84,15.83,11.05,23.96,16.05,40.58,12.9,79.65-36.06,89.26-29.4-21.4-25.05-54.48-6.56-81.92,3.99-5.93,19.6-26.14,24.54-29.44,2.41-1.61,3.95-2.6,7.02-1.85Z"/>
  <path class="st0" d="M1403.35,463.85c2.48-.57,3.5,1.69,4.99,2.99,31.41,27.32,60.05,77.76,19.06,110.29-62.05-10.24-50.18-73.32-24.05-113.27Z"/>
  <path class="st0" d="M1256.5,887.6c-16.22-32.33-13.8-66.01,13.81-90.89,4.84-4.36,30.02-22.22,34.86-20.88,4.39,5.85,6.67,17.37,7.26,24.84,3.42,43.31-9.35,78.84-55.92,86.94Z"/>
  <path class="st0" d="M1907.6,800.38c23.05,23.66,27.33,60.14,7.44,87.08-53.68-10.85-62.71-65.73-48.79-111.72,1.52-2.08,14.05,4.95,16.61,6.38,6.79,3.78,19.45,12.83,24.74,18.25Z"/>
  <path class="st0" d="M1988.21,1057.68c-37,39.37-105.46,31.52-111.74-28.63,13.81-14.09,30.36-22.84,50.23-16.85,25.25,7.61,35.78,40.59,61.51,45.48Z"/>
  <path class="st0" d="M1186.37,1057.68c20.05-2.78,28.51-24.34,43.33-35.67,24.16-18.47,48.91-14.5,67.95,8.57-8.28,58.75-75.34,66.36-111.28,27.09Z"/>
  <path class="st0" d="M1880.22,713.77c-2.28,2.59-14.59-12.04-17.01-13.97-17.08-13.59-45.2-14.74-57-28.98-13.07-15.77-10.62-44.69,13.01-47.05,47.52-4.73,81.47,47.24,61,89.99Z"/>
  <path class="st0" d="M1294.36,715.77c-12.54-32.4-7.65-59.38,20.14-80.81,12.62-9.74,26.7-13.47,42.74-11.06,19,2.86,22.39,28.96,13.13,42.94-11.41,17.22-37.71,18.73-54.7,29.28-8.53,5.29-14.71,12.35-21.31,19.66Z"/>
  <path class="st0" d="M1488.3,897.72c.26,5.63-.37,11.36-.02,17,1.02,16.69,1.66,33.06-4.42,49.52s-20.5,31.28-38.58,31.19c-24.13-.11-26.8-38.73-9.97-53.74,19.98-17.81,31.35-12.85,48.57-41.38,1.23-2.04-.34-3.57,4.42-2.6Z"/>
  <path class="st0" d="M1686.29,897.72c6.12,5.13,9.18,14.37,14.96,20.01,19.63,19.15,57.31,21.71,46.44,60.4-4.92,17.5-16.84,20.1-32.81,13.95-33.6-12.94-32.79-64.62-28.59-94.36Z"/>
  <path class="st0" d="M1971.57,1906.05c24.97,25.03,15.73,75.72-19.28,86.39-42.34,12.91-72.77-19.06-65.6-61.59,6.19-36.71,59.73-50.01,84.88-24.8ZM1931.78,1903.83c-33.12,3.63-41.23,54.17-16.56,73.55,10.73,8.43,27.72,8.61,38.88.88,29.27-20.25,17.16-78.76-22.32-74.43Z"/>
  <path class="st0" d="M1340.32,405.87c12.09,26.78,35.78,77.73,3.41,98.35-11.35,7.23-18.66,10.39-27.06-1.71-9.44-13.6-9.05-27.31-5.42-42.76,2.84-12.06,15.77-43.33,24.2-51.78,1.67-1.67,1.81-2.82,4.87-2.11Z"/>
  <path class="st0" d="M1838.22,405.88c16.01,30.42,45.63,78.65,9.11,105.26-38.88-7.96-37.61-43.07-27.16-74.35,2.08-6.23,8.87-22.78,12.38-27.61,1.69-2.32,2.18-4.04,5.67-3.29Z"/>
  <path class="st0" d="M2148.48,1157.33c-26.86-38.39-5.1-80.13,27.68-105.66-8.3,24.14,6.58,47.24,9.54,69.5,2.91,21.91-17.85,35.12-37.22,36.16Z"/>
  <path class="st0" d="M998.41,1053.67c3.41-.84,3.99,1.31,6,2.98,23.22,19.37,38.45,51.75,29.86,81.86-6.24,21.87-14.26,23.52-32.53,10.78-25.6-17.84-8.19-41.19-3.84-65.15,1.92-10.57,2.72-19.97.51-30.48Z"/>
  <path class="st0" d="M1262.12,1895.63l36.23,97.72-15.77-.21-12.17-30.82h-36.11l-12.17,30.82-13.76.22,34.17-94.78c3.48-5.59,13.85-2.77,19.58-2.95ZM1268.35,1951.38c-6.21-11.45-8.91-25.28-13.92-37.06-.87-2.04-1.25-4.68-4.06-4.92-2.67,14.49-8.63,28.33-14.01,41.99h31.99Z"/>
  <path class="st0" d="M954.41,1895.4v10h-45.99v29.99h41.99v12h-41.99v33.99h44.99c4.12,2.81,3.04,7.49,3,12h-61.99v-97.97h59.99Z"/>
  <path class="st0" d="M2328.15,1895.4v10h-43.99v29.99h41.99v12h-41.99v33.99h44.99c4.12,2.81,3.04,7.49,3,12h-61.99v-97.97h57.99Z"/>
  <path class="st0" d="M2444.13,1895.4v10h-43.99v29.99h41.99v12h-41.99v33.99h44.99c4.47,3.28,4.33,8.87,0,12h-58.99v-97.97h57.99Z"/>
  <path class="st0" d="M786.44,1953.38v39.99h-14v-97.97c19.76-1.66,54.83-5.96,64.81,16.17,13.66,30.31-25.45,49.55-50.81,41.82ZM786.44,1943.39c16.91.95,38.94,1.45,38.15-21.03-.68-19.43-23.79-17.67-38.15-16.95v37.99Z"/>
  <path class="st0" d="M1918.24,709.78c1.05-1.1,15.03,6.28,17.34,7.64,24.75,14.52,41.88,35.03,30.21,64.9-8.13,20.81-35.55,2.33-41.93-11.2-6.8-14.42.11-28.51-1.6-44.39-.66-6.17-4.14-10.83-4.02-16.96Z"/>
  <path class="st0" d="M520.49,1247.62c-42.14-1.88-56.35-45.9-47.99-82,25.15,5.25,46.89,29.38,49.79,55.17,1.1,9.72-1.46,17.47-1.81,26.83Z"/>
  <path class="st0" d="M1256.34,709.78c.53,3.82-2.7,5.87-3.56,9.42-3.89,15.98,1.23,28.31-.36,43.62-1.74,16.69-23.48,32.01-39.79,28.65-24.1-39.07,7.58-69.92,43.72-81.69Z"/>
  <path class="st0" d="M2654.22,1247.47c-8.66-33.31,4.91-64.05,36.09-78.61,5.11-2.38,10.48-5.94,11.8,1.75,2.78,16.24,1.31,38.19-7.63,52.39-7.9,12.55-25.19,25.12-40.25,24.46Z"/>
  <path class="st0" d="M2267.16,1279.6c-11.44-1.32-33.8-9.78-40.7-19.28-9.54-13.13-9.28-23.24,7.63-27.78,31.11-8.36,57.9,21.59,74.05,44.07.24.52-4.7,2.99-4.99,2.99-11.12,0-25.43,1.22-35.99,0Z"/>
  <path class="st0" d="M866.43,1277.58c16.24-28.55,55.26-63.21,87.81-36.68-4.89,39.91-56.67,42.34-87.81,36.68Z"/>
  <path class="st0" d="M2150.18,729.78l6.02,36.96c.51,18.18-1.23,37.6-16.99,49.03-13.89,10.07-19.62,4.94-24.07-9.96-7.05-23.63,10.94-57.74,29.03-73.05,2.01-1.7,2.63-3.8,6.01-2.98Z"/>
  <path class="st0" d="M1024.41,729.77c23.21,17.79,48.39,58.47,29.67,86.65-3.86,5.81-4.74,6.02-11.09,3.76-35-12.43-25.25-62.35-18.58-90.42Z"/>
  <path class="st0" d="M2234.81,1139c-17.03-17.98-1.42-49.07-14.64-69.32,36.46,8.11,65.66,42.25,44.06,79.01-6.86,4.16-24.42-4.42-29.42-9.69Z"/>
  <path class="st0" d="M2096.19,941.7c-10.11-.61-18.7,2.65-29.01,2.01-24.67-1.52-49.58-12.59-54.82-38.71,20.81-14.82,51.78-7.32,68.89,10.67,3.1,3.25,17.99,23.04,14.94,26.03Z"/>
  <path class="st0" d="M1121.83,898.17c12.83-2.16,28.19-.78,39.69,5.48-6.81,36.72-46.63,43.29-78.15,38.07-2.9-.48-4.98.22-6.95-3.01,9.38-16.02,25.91-37.25,45.41-40.54Z"/>
  <path class="st0" d="M952.4,1069.67c-1.88,8.19-5.36,16.49-5.99,24.97-1.14,15.25,5.09,23.15-3.59,38.41-6.4,11.25-21.48,17.93-34.18,16.35-19.13-38.7,7.14-69.28,43.76-79.73Z"/>
  <path class="st0" d="M712.46,1897.41l-2.09,9.91c-13.61-2.57-43.28-9.22-42.1,13.09.92,17.36,42.38,16.78,47.74,36.41,10.52,38.55-40.33,44.22-65.55,32.53l4.02-11.97c14.96,10.54,55.16,9.25,47.07-16.11-4.89-15.34-48.64-13.37-48.83-40.83s40.1-31.76,59.74-23.02Z"/>
  <path class="st0" d="M1842.24,1897.42l-4.12,9.89c-35.1-9.33-68.7,2.99-63.67,44.88,3.7,30.79,39.08,37.32,63.78,27.17l1.97,11.95c-33.08,9.38-77.19,1.21-81.74-39.11-5.41-47.88,43.53-69.3,83.79-54.79Z"/>
  <path class="st0" d="M1084.31,1907.33c-20.22-4.67-50.12-5.44-60.73,16.25-20.94,42.83,21.73,72.35,60.79,55.79l1.2,10.07c-31.2,14.07-78.13,2.19-81.26-36.97-3.32-41.57,25.64-62.28,65.08-59.08,10.86.88,20.23,1.1,14.91,13.94Z"/>
  <path class="st0" d="M2212.17,1895.4v10h-43.99v31.99h41.99c.04,4.51,1.12,9.19-3,12h-38.99v43.99h-14v-97.97h57.99Z"/>
  <polygon class="st0" points="2098.19 1895.4 2098.19 1905.4 2054.2 1905.4 2054.2 1937.39 2094.2 1937.39 2094.2 1949.38 2054.2 1949.38 2054.2 1993.37 2040.21 1993.37 2040.21 1895.4 2098.19 1895.4"/>
  <polygon class="st0" points="1594.29 1950.38 1560.3 1895.42 1578.03 1895.67 1604.27 1941.38 1627.25 1897.36 1644.27 1895.41 1610.29 1948.39 1610.29 1993.37 1594.29 1993.37 1594.29 1950.38"/>
  <polygon class="st0" points="1518.3 1895.4 1518.3 1905.4 1484.31 1905.4 1484.31 1993.37 1470.31 1993.37 1470.31 1908.4 1467.31 1905.4 1436.32 1905.4 1436.32 1895.4 1518.3 1895.4"/>
  <path class="st0" d="M1364.33,1895.4v85.97h44.99c4.12,2.81,3.04,7.49,3,12h-61.99v-97.97h14Z"/>
  <path class="st0" d="M2618.09,955.71c.83,3.41-1.31,3.99-2.99,5.99-17.58,21.08-44.09,30.17-68.97,14.88,12.09-27.22,46.57-29.32,71.95-20.88Z"/>
  <path class="st0" d="M554.48,955.71c28.15-8.14,57.96-6.49,73.95,20.99-25.45,15.4-60.34,5.06-73.95-20.99Z"/>
  <rect class="st0" x="1140.37" y="1895.4" width="14" height="97.97"/>
  <path class="st0" d="M1858.24,1335.58h-79.99c19.44-23.14,61.71-26.2,79.99,0Z"/>
  <path class="st0" d="M1396.33,1335.58h-79.99c17.71-26.99,60.48-22.33,79.99,0Z"/>
  <path class="st0" d="M1132.38,1335.56c-6.3-.14-12.69.25-19.01.01-2.43-.09-7.44,1.51-6.98-1.98,9.84-3.03,19.69-10.18,25.98,1.97Z"/>
  <path class="st0" d="M2066.19,1333.6c.47,3.49-4.55,1.89-6.97,1.98-5.65.21-11.37-.14-17,0,2.92-12.83,16.14-4.35,23.98-1.97Z"/>
  <path class="st0" d="M1221.36,2725.14c4.97-.31,14.26-1.47,19.79-2.2,31.73-4.19,32.13-23.9,53.36-36.62,19.4-11.62,47.02-12.65,55.92-36.06,4.76-12.52,5.76-27.16,10.35-39.63,12.55-34.11,66.17-57.62,90.57-85.39,7.78-8.86,19.73-30.14-.02-30.2-14.66-.04-46.63,21.71-59.65,30.52-28.52,19.3-72.51,61.97-104.51,67.45-19.04,3.26-50.28,5.42-69.8,6.19-47.99,1.9-83.39-32.6-129.91-36.1-51.71-3.88-113.1,36.8-161.6,19.62-25.8-9.14-55.35-26.9-79.47-40.5-1.65-.93-6.68-2.27-4.99-4.99,37.89,10.64,76.96,17.96,115.99,21.66,43.13-2.93,84.79-29.12,127.99-25.7,17.14,1.36,36.67,7.39,54.23,9.76,59.94,8.07,106.64,8.57,156.57-28.89,23.41-17.56,47.49-43.64,62.14-68.81-38.96,4.22-77.12,15.62-115.58,23.38-21.02,4.24-59.39,14.24-79.19,12.38-24.83-2.33-49.37-18.06-73.6-24.35-41.2-10.7-83.98,33.94-121.57,47.54-31.91,11.55-90.57,5.48-124.75.8-27.39-3.75-49.59-6.45-71.24-24.74-15.43-13.03-30.25-31.12-43.92-46.04l24.61,15.37c32.2,18.15,71.57,27.88,108.32,29.65,6.49.31,24.46,1.44,28.1-3.93,6.05-8.91-16.79-10.31-22.9-13.27-12.83-6.21-18.89-21-21.66-34.32-4.28-20.58-2.96-38.61-9.94-60.04-4.8-14.73-11.68-24.08-18.93-37.05-1-1.79-3.48-5.46-2.66-7.33,17.82,21.47,28.06,49.33,42.65,73.31,15.69,25.81,36.89,52.53,70.86,48.12,53.56-6.95,100.24-38.99,158.26-33.28,30.1,2.96,60.73,21.4,91.16,10.77,29.56-10.33,69.01-34.91,96.63-51.33,41.25-24.53,87.4-53.42,125.18-82.77,36.51-28.37,42.24-41.67,56.71-85.26,16.62-50.06,27.23-102.11,39.68-153.27h189.51c11.01,44.43,20.29,89.47,33.68,133.28,6.71,21.97,18.42,62.36,32.57,79.4,20.57,24.77,82.97,63.31,112.1,81.85,37.87,24.1,98.83,63.78,139.84,78.1,30.43,10.63,61.04-7.81,91.16-10.77,50.01-4.92,93.31,18.43,140.32,29.24,54,12.41,69.93-11.52,94.79-54.07,12.19-20.86,20.83-45.81,37.62-63.34l-21.45,41.52c-12.87,27.3-1.85,80.67-31.46,96.5-7.53,4.02-17.88,3.94-23.05,6.94-2.71,1.57-2.73,4.67-1.1,7.08,3.65,5.37,21.61,4.24,28.1,3.93,39.05-1.88,78.23-12.37,112.31-31.66l20.61-13.36-27.88,32.09c-20.32,18-32.11,28.82-59.58,34.39-37.6,7.63-117.47,16.14-152.45,3.49-36.07-13.05-79.4-56.67-118.5-48.45-27.13,5.7-55.66,26.94-84.57,25.58-18.29-.86-42.79-7.06-61.3-10.7-41.84-8.21-83.28-20.5-125.57-25.38,22.3,35.73,59.2,73.81,98.61,90.33,62.52,26.2,113.52,2.44,174.33-2.38,42.98-3.41,85.08,22.61,127.99,25.7,40.31-3.36,79.76-12.31,118.96-21.67l-39.94,23.03c-29.13,13.85-50.91,30.12-84.83,26.74-40.62-4.05-82.76-27-124.27-23.88-46.54,3.5-81.65,38.01-129.91,36.1-19.52-.77-50.75-2.93-69.8-6.19-31.92-5.47-76.06-48.16-104.51-67.45-13.15-8.92-44.7-30.57-59.65-30.52-20.27.06-7.15,22.67.99,31.19,20.96,21.95,51.37,38.47,72.98,58.99s18.2,43.49,28,67.96c7.35,18.34,38.66,23.45,54.85,33.14,21.31,12.76,22.47,32.54,53.36,36.62,4.27.57,16.86,2.2,19.79,2.2h50.99l-81.18,19.78c-29.39,6.93-38.35-27.76-58.06-39.51-26.89-16.02-58.84-16.4-77.07-46.9-7.6-12.72-17.06-43.59-25.76-52.22-12.41-12.3-34.36-10.17-50.31-13.68-10.67-2.34-17.23-5.83-26.2-11.8-5.63-3.75-35.83-30.13-38.33-29.63-2.99.6-3.21,6.37-3.19,9.01.16,17.24,7.23,39.38,15.81,54.32,19.78,34.48,56.62,55,86.44,79.52,7.79,16.31-1.08,35.07,9.87,50.11,15.54,21.33,67.68,27.17,92.44,31.53,2.4.42,9.69.6,9.55,3.42l-65-1.96c-18.82-4.35-60.06-3.25-73-18.98-14.5-17.64-5.51-41.4-17.96-58.02-9.6-12.82-34.93-25.8-50.98-22.97-6.38,1.13-10.61,9.96-12.48,15.52-8.14,24.2-9.15,63.2-.07,86.97l14.55,25.43c-17.14-11.43-40.5-25.74-47.98-45.98-4.51-12.2-4.13-41.3-3.04-54.97,1.63-20.45,11.8-47.56,4.99-66.94-4.11-11.71-12.98-21.75-21.97-29.99-12.14,10.95-21.32,25.03-24.93,41.16,6.51,62.75,30.22,114.12-35.42,152.39-2.17,1.27-6.16,3.92-8.6,3.38,13.21-13.71,20.61-33.2,21.99-51.98,1.15-15.65-.89-43.24-5.93-58.09-1.97-5.81-6.41-15.7-13.11-16.89-16.1-2.84-41.31,10.14-50.98,22.97-12.02,15.94-3.07,42.98-18.91,59.07-9.95,10.11-38.1,14-52.26,15.73-27.89,3.41-56.65,4.38-84.79,4.17-.14-2.83,7.15-3,9.55-3.42,24.78-4.37,91.62-11.69,98-41.97,2.55-12.11-2.23-28.88,5.5-40.49,34.86-27.19,77.4-52.68,93.89-96.06,4.22-11.1,7.68-31.21,7.02-43.01-.15-2.72.73-3.69-3.02-2.99-5.84,1.08-24.38,19.92-31.12,24.87-6.13,4.49-15.49,10.9-22.45,13.54-17.61,6.67-48.26,3.46-61.26,16.72-8.82,9-17.87,39.13-25.76,52.22-18.45,30.57-49.57,30.7-76.61,47.36-20.64,12.72-29.07,45.15-58.52,39.05l-81.18-19.78c16.75-.78,34.34,1.06,50.99,0Z"/>
  <path class="st0" d="M2371.59,1174.09c36.13-6.04,64.66,28.29,76.91,58.15l8.64,29.33c-10.3-11.57-20.95-20.07-36.47-23.5-29.11-6.43-86.71,8.63-80.35-41.29,1.64-12.89,19.6-20.73,31.27-22.69Z"/>
  <path d="M778.02,1446.07c152.55-8.4,160.87,283.75,9.52,291.47-152.94,7.8-161.69-283.09-9.52-291.47Z"/>
  <path d="M1813.83,1446.07c150.14-8.4,160.79,282.19,9.51,291.46-152.13,9.33-164.89-282.77-9.51-291.46Z"/>
  <path d="M284.95,1589.06l-.02-137.13c47.2-10.96,120.82-4.4,125.66,56.51,6.02,75.63-64.32,94.97-125.65,80.62Z"/>
  <path d="M1568.29,727.76c-2.3,2.17-14.86-9.58-17.03-11.95-27.58-30.02-30.69-87.43-15.94-123.98,8.11-20.1,21.91-38.61,44.06-43.32,6.83.82,15.52,31.98,16.31,38.91,3.95,34.73-32.19,58.2-36.9,91.86-2.5,17.87,2.23,32.54,9.5,48.47Z"/>
  <path d="M1586.43,731.66c-11.2-23.17-18.36-39.94-8.5-65.24,15.94-40.89,45.72-48.35,27.33-102.58-1.48-4.36-9.48-14.9,1.03-9.03,20.72,11.57,33.54,49.73,35.78,72.19,3.77,37.83-11.56,98.57-55.65,104.66Z"/>
  <path d="M1931.78,1903.83c39.48-4.33,51.59,54.18,22.32,74.43-11.17,7.73-28.15,7.55-38.88-.88-24.67-19.38-16.56-69.92,16.56-73.55Z"/>
  <path d="M1268.35,1951.38h-31.99c5.39-13.65,11.34-27.5,14.01-41.99,2.81.24,3.19,2.88,4.06,4.92,5.02,11.79,7.71,25.61,13.92,37.06Z"/>
  <path d="M786.44,1943.39v-37.99c14.36-.71,37.47-2.48,38.15,16.95.79,22.48-21.24,21.98-38.15,21.03Z"/>
</svg>